<svg width="19" height="19" viewBox="0 0 19 19" fill="none" xmlns="http://www.w3.org/2000/svg">
<path fill-rule="evenodd" clip-rule="evenodd" d="M11.9065 6.74708L11.0509 6.74763C10.3798 6.74763 10.2497 7.05767 10.2497 7.51251V8.51615H11.8503L11.6418 10.0885H10.2497V14.1218H8.58097V10.0885H7.18552V8.51615H8.58097V7.35722C8.58097 6.01148 9.42586 5.27921 10.6594 5.27921C11.2503 5.27921 11.7582 5.32176 11.9065 5.3411V6.74708ZM9.54574 0.85791C4.52529 0.85791 0.454834 4.81663 0.454834 9.7005C0.454834 14.5838 4.52529 18.5431 9.54574 18.5431C14.5668 18.5431 18.6367 14.5838 18.6367 9.7005C18.6367 4.81663 14.5668 0.85791 9.54574 0.85791Z" fill="#BDC4CD"/>
</svg>
