<svg width="49" height="48" viewBox="0 0 49 48" fill="none" xmlns="http://www.w3.org/2000/svg">
<rect x="0.666504" width="48" height="48" rx="24" fill="#F2F6F4"/>
<path d="M16.5723 19.8198L24.6664 24.504L32.7056 19.8473" stroke="#05422C" stroke-width="1.5" stroke-linecap="round" stroke-linejoin="round"/>
<path d="M24.6665 32.809V24.4949" stroke="#05422C" stroke-width="1.5" stroke-linecap="round" stroke-linejoin="round"/>
<path d="M33.4757 21.4058V26.5941C33.4757 26.64 33.4757 26.6766 33.4666 26.7224C32.8249 26.1632 31.9999 25.8333 31.0832 25.8333C30.2216 25.8333 29.4241 26.1358 28.7916 26.6399C27.9482 27.3091 27.4166 28.3449 27.4166 29.4999C27.4166 30.1874 27.6091 30.8383 27.9482 31.3883C28.0307 31.5349 28.1316 31.6724 28.2416 31.8008L26.5641 32.7266C25.5191 33.3133 23.8141 33.3133 22.7691 32.7266L17.8741 30.0133C16.7649 29.3991 15.8574 27.8591 15.8574 26.5941V21.4058C15.8574 20.1408 16.7649 18.6008 17.8741 17.9866L22.7691 15.2733C23.8141 14.6866 25.5191 14.6866 26.5641 15.2733L31.4591 17.9866C32.5682 18.6008 33.4757 20.1408 33.4757 21.4058Z" stroke="#05422C" stroke-width="1.5" stroke-linecap="round" stroke-linejoin="round"/>
<path d="M34.7498 29.4999C34.7498 30.5999 34.264 31.5808 33.5032 32.2499C32.8524 32.8183 32.009 33.1666 31.0832 33.1666C29.0573 33.1666 27.4165 31.5258 27.4165 29.4999C27.4165 28.3449 27.9482 27.3091 28.7915 26.6399C29.424 26.1358 30.2215 25.8333 31.0832 25.8333C33.109 25.8333 34.7498 27.4741 34.7498 29.4999Z" stroke="#05422C" stroke-width="1.5" stroke-miterlimit="10" stroke-linecap="round" stroke-linejoin="round"/>
<path d="M31.3123 28.354V29.729L30.1665 30.4165" stroke="#05422C" stroke-width="1.5" stroke-miterlimit="10" stroke-linecap="round" stroke-linejoin="round"/>
</svg>
