<svg width="49" height="48" viewBox="0 0 49 48" fill="none" xmlns="http://www.w3.org/2000/svg">
<rect x="0.333496" width="48" height="48" rx="24" fill="#F2F6F4"/>
<path d="M27.0837 14.8333V23.9999C27.0837 25.0083 26.2587 25.8333 25.2503 25.8333H15.167V19.9849C15.8362 20.7824 16.8629 21.2774 17.9995 21.2499C18.9254 21.2316 19.7595 20.8741 20.3828 20.2783C20.667 20.0399 20.9053 19.7374 21.0887 19.4074C21.4187 18.8482 21.602 18.1882 21.5837 17.5007C21.5562 16.4282 21.0795 15.4841 20.337 14.8333H27.0837Z" stroke="#05422C" stroke-width="1.5" stroke-linecap="round" stroke-linejoin="round"/>
<path d="M33.5003 25.8333V28.5833C33.5003 30.1049 32.272 31.3333 30.7503 31.3333H29.8337C29.8337 30.3249 29.0087 29.4999 28.0003 29.4999C26.992 29.4999 26.167 30.3249 26.167 31.3333H22.5003C22.5003 30.3249 21.6753 29.4999 20.667 29.4999C19.6587 29.4999 18.8337 30.3249 18.8337 31.3333H17.917C16.3953 31.3333 15.167 30.1049 15.167 28.5833V25.8333H25.2503C26.2587 25.8333 27.0837 25.0083 27.0837 23.9999V17.5833H28.7703C29.4303 17.5833 30.0353 17.9408 30.3653 18.5091L31.9328 21.2499H30.7503C30.2462 21.2499 29.8337 21.6624 29.8337 22.1666V24.9166C29.8337 25.4208 30.2462 25.8333 30.7503 25.8333H33.5003Z" stroke="#05422C" stroke-width="1.5" stroke-linecap="round" stroke-linejoin="round"/>
<path d="M20.6668 33.1667C21.6794 33.1667 22.5002 32.3459 22.5002 31.3333C22.5002 30.3208 21.6794 29.5 20.6668 29.5C19.6543 29.5 18.8335 30.3208 18.8335 31.3333C18.8335 32.3459 19.6543 33.1667 20.6668 33.1667Z" stroke="#05422C" stroke-width="1.5" stroke-linecap="round" stroke-linejoin="round"/>
<path d="M28.0003 33.1667C29.0128 33.1667 29.8337 32.3459 29.8337 31.3333C29.8337 30.3208 29.0128 29.5 28.0003 29.5C26.9878 29.5 26.167 30.3208 26.167 31.3333C26.167 32.3459 26.9878 33.1667 28.0003 33.1667Z" stroke="#05422C" stroke-width="1.5" stroke-linecap="round" stroke-linejoin="round"/>
<path d="M33.5002 24V25.8333H30.7502C30.246 25.8333 29.8335 25.4208 29.8335 24.9167V22.1667C29.8335 21.6625 30.246 21.25 30.7502 21.25H31.9326L33.5002 24Z" stroke="#05422C" stroke-width="1.5" stroke-linecap="round" stroke-linejoin="round"/>
<path d="M21.5833 17.5834C21.5833 18.6834 21.0975 19.6642 20.3367 20.3334C19.6858 20.9017 18.8425 21.2501 17.9167 21.2501C15.8908 21.2501 14.25 19.6092 14.25 17.5834C14.25 16.4284 14.7817 15.3926 15.625 14.7234C16.2575 14.2193 17.055 13.9167 17.9167 13.9167C19.9425 13.9167 21.5833 15.5576 21.5833 17.5834Z" stroke="#05422C" stroke-width="1.5" stroke-miterlimit="10" stroke-linecap="round" stroke-linejoin="round"/>
<path d="M18.1458 16.4375V17.8125L17 18.5" stroke="#05422C" stroke-width="1.5" stroke-miterlimit="10" stroke-linecap="round" stroke-linejoin="round"/>
</svg>
