<svg width="20" height="19" viewBox="0 0 20 19" fill="none" xmlns="http://www.w3.org/2000/svg">
<path fill-rule="evenodd" clip-rule="evenodd" d="M13.6152 7.89717C13.6186 7.97509 13.6208 8.05302 13.6208 8.13205C13.6208 10.5289 11.7447 13.2934 8.31403 13.2934C7.26062 13.2934 6.28051 12.9933 5.45494 12.4787C5.60096 12.4953 5.74926 12.5036 5.89983 12.5036C6.77369 12.5036 7.57767 12.214 8.2163 11.7271C7.39983 11.7127 6.71119 11.1883 6.47369 10.4676C6.58789 10.4886 6.70437 10.4997 6.82483 10.4997C6.99471 10.4997 7.15948 10.4775 7.3163 10.4361C6.46289 10.2697 5.82028 9.53636 5.82028 8.65763C5.82028 8.64989 5.82028 8.64216 5.82028 8.63442C6.07142 8.77037 6.35948 8.85217 6.66517 8.86156C6.1646 8.53604 5.83505 7.98062 5.83505 7.35169C5.83505 7.01899 5.9271 6.70728 6.08789 6.43924C7.00778 7.53683 8.38221 8.25916 9.93221 8.33487C9.90039 8.20224 9.88392 8.06352 9.88392 7.92148C9.88392 6.91951 10.7191 6.10709 11.7487 6.10709C12.2856 6.10709 12.7703 6.32761 13.1101 6.6802C13.5351 6.59896 13.9345 6.44809 14.2947 6.24029C14.1555 6.66362 13.8595 7.01899 13.4748 7.24392C13.8521 7.19971 14.2112 7.10244 14.5458 6.95819C14.2958 7.32185 13.9794 7.64128 13.6152 7.89717ZM10.0004 0.85791C4.97937 0.85791 0.909485 4.81663 0.909485 9.7005C0.909485 14.5838 4.97937 18.5431 10.0004 18.5431C15.0214 18.5431 19.0913 14.5838 19.0913 9.7005C19.0913 4.81663 15.0214 0.85791 10.0004 0.85791Z" fill="#BDC4CD"/>
</svg>
