<svg width="52" height="31" viewBox="0 0 52 31" fill="none" xmlns="http://www.w3.org/2000/svg">
<rect x="0.486992" y="1.27557" width="50.8299" height="28.6496" rx="5.08299" fill="white"/>
<rect x="0.486992" y="1.27557" width="50.8299" height="28.6496" rx="5.08299" stroke="#F4F4F4" stroke-width="0.92418"/>
<g clip-path="url(#clip0_444_831)">
<path d="M26.4596 13.8108C26.4411 15.193 27.7619 15.9644 28.7568 16.423C29.7791 16.8936 30.1225 17.1954 30.1186 17.6161C30.1108 18.2602 29.3031 18.5444 28.5471 18.5555C27.2283 18.5749 26.4616 18.2187 25.8519 17.9493L25.3768 20.0522C25.9885 20.3188 27.121 20.5514 28.2954 20.5615C31.0521 20.5615 32.8557 19.2743 32.8655 17.2784C32.8762 14.7455 29.1616 14.6053 29.187 13.4731C29.1958 13.1298 29.5421 12.7635 30.301 12.6703C30.6765 12.6232 31.7135 12.5872 32.8889 13.0994L33.3503 11.0647C32.7182 10.847 31.9056 10.6384 30.8941 10.6384C28.2993 10.6384 26.4742 11.9432 26.4596 13.8108ZM37.7838 10.8137C37.2804 10.8137 36.8561 11.0915 36.6669 11.5178L32.7289 20.412H35.4836L36.0318 18.979H39.3982L39.7162 20.412H42.1441L40.0254 10.8137H37.7838ZM38.1691 13.4066L38.9641 17.0108H36.7868L38.1691 13.4066ZM23.1196 10.8137L20.9482 20.412H23.5732L25.7436 10.8137H23.1196ZM19.2363 10.8137L16.504 17.3467L15.3988 11.7918C15.2691 11.1718 14.757 10.8137 14.1883 10.8137H9.72161L9.65918 11.0924C10.5761 11.2806 11.6179 11.5842 12.249 11.909C12.6353 12.1074 12.7455 12.2809 12.8724 12.7524L14.9657 20.412H17.7399L21.993 10.8137H19.2363Z" fill="url(#paint0_linear_444_831)"/>
</g>
<defs>
<linearGradient id="paint0_linear_444_831" x1="24.5939" y1="20.7606" x2="24.8656" y2="10.5686" gradientUnits="userSpaceOnUse">
<stop stop-color="#222357"/>
<stop offset="1" stop-color="#254AA5"/>
</linearGradient>
<clipPath id="clip0_444_831">
<rect width="34.1946" height="12.9385" fill="white" transform="translate(8.80469 9.13086)"/>
</clipPath>
</defs>
</svg>
