<svg width="430" height="329" viewBox="0 0 430 329" fill="none" xmlns="http://www.w3.org/2000/svg">
<g filter="url(#filter0_d_503_8)">
<g clip-path="url(#clip0_503_8)">
<path d="M172.827 66.568H171.288V24.4036C171.288 21.1989 170.657 18.0256 169.43 15.0648C168.204 12.104 166.406 9.41375 164.14 7.14767C161.874 4.88158 159.184 3.08402 156.223 1.85762C153.262 0.631225 150.089 2.7153e-06 146.884 0H57.5533C51.0811 -1.23383e-05 44.8739 2.57106 40.2973 7.14761C35.7208 11.7242 33.1497 17.9313 33.1497 24.4035V255.721C33.1497 258.925 33.7809 262.099 35.0073 265.06C36.2337 268.02 38.0312 270.711 40.2973 272.977C42.5634 275.243 45.2536 277.04 48.2144 278.267C51.1752 279.493 54.3485 280.124 57.5532 280.124H146.884C153.356 280.124 159.564 277.553 164.14 272.977C168.717 268.4 171.288 262.193 171.288 255.721V96.5813H172.827V66.568Z" fill="#3F3D56"/>
<path d="M147.867 6.34915H136.207C136.743 7.66385 136.948 9.09025 136.803 10.5027C136.658 11.9151 136.168 13.2703 135.376 14.4487C134.584 15.6272 133.514 16.5928 132.261 17.2605C131.008 17.9281 129.61 18.2774 128.19 18.2775H77.0137C75.5939 18.2774 74.1958 17.9281 72.9428 17.2605C71.6897 16.5928 70.6201 15.6272 69.8281 14.4487C69.0361 13.2703 68.5461 11.9151 68.4012 10.5027C68.2563 9.09025 68.461 7.66385 68.9973 6.34915H58.1062C55.7129 6.34915 53.3431 6.82054 51.132 7.73639C48.921 8.65225 46.9119 9.99464 45.2196 11.6869C43.5273 13.3792 42.1849 15.3883 41.2691 17.5993C40.3532 19.8104 39.8818 22.1802 39.8818 24.5735V255.551C39.8818 257.945 40.3532 260.314 41.2691 262.525C42.1849 264.736 43.5273 266.746 45.2196 268.438C46.9119 270.13 48.9209 271.473 51.132 272.388C53.3431 273.304 55.7129 273.776 58.1062 273.776H147.867C150.261 273.776 152.63 273.304 154.842 272.388C157.053 271.473 159.062 270.13 160.754 268.438C162.446 266.746 163.789 264.737 164.704 262.525C165.62 260.314 166.092 257.945 166.092 255.551V24.5735C166.092 22.1802 165.62 19.8104 164.704 17.5993C163.789 15.3882 162.446 13.3792 160.754 11.6869C159.062 9.99464 157.053 8.65225 154.842 7.73639C152.63 6.82054 150.261 6.34915 147.867 6.34915Z" fill="white"/>
<path d="M201.459 280.164H4.51691C4.37982 280.164 4.24834 280.11 4.1514 280.013C4.05446 279.916 4 279.784 4 279.647C4 279.51 4.05446 279.379 4.1514 279.282C4.24834 279.185 4.37982 279.13 4.51691 279.13H201.459C201.596 279.13 201.728 279.185 201.824 279.282C201.921 279.379 201.976 279.51 201.976 279.647C201.976 279.784 201.921 279.916 201.824 280.013C201.728 280.11 201.596 280.164 201.459 280.164Z" fill="#CBCBCB"/>
<path d="M102.988 178.685C127.096 178.685 146.639 159.142 146.639 135.034C146.639 110.926 127.096 91.3829 102.988 91.3829C78.8806 91.3829 59.3374 110.926 59.3374 135.034C59.3374 159.142 78.8806 178.685 102.988 178.685Z" fill="#806491"/>
<path d="M98.6627 151.685C97.6807 151.687 96.7248 151.369 95.9391 150.78L95.8904 150.744L85.6318 142.896C85.1567 142.532 84.758 142.078 84.4584 141.559C84.1589 141.041 83.9643 140.469 83.8859 139.875C83.8075 139.282 83.8468 138.678 84.0015 138.1C84.1562 137.522 84.4233 136.98 84.7875 136.504C85.1518 136.029 85.6061 135.631 86.1244 135.331C86.6427 135.031 87.215 134.837 87.8085 134.759C88.402 134.68 89.0052 134.719 89.5835 134.874C90.1619 135.029 90.7041 135.296 91.1792 135.66L97.8238 140.756L113.526 120.271C113.89 119.796 114.344 119.398 114.862 119.098C115.38 118.799 115.952 118.604 116.545 118.526C117.139 118.447 117.741 118.487 118.32 118.641C118.898 118.796 119.44 119.063 119.915 119.427L119.916 119.428L119.818 119.563L119.919 119.428C120.877 120.164 121.503 121.251 121.662 122.449C121.82 123.647 121.496 124.859 120.761 125.818L102.293 149.902C101.866 150.457 101.316 150.906 100.687 151.214C100.058 151.523 99.3671 151.682 98.6667 151.68L98.6627 151.685Z" fill="white"/>
<path d="M362.861 284.455C363.392 283.596 364.018 282.799 364.725 282.079C365.017 281.777 365.325 281.492 365.642 281.214C367.572 279.496 369.925 278.323 372.459 277.816C374.992 277.309 377.615 277.486 380.058 278.329C382.5 279.171 384.674 280.649 386.356 282.611C388.038 284.572 389.167 286.946 389.628 289.488C391.76 281.604 386.21 273.839 380.631 267.874C375.048 261.91 368.668 255.369 368.7 247.198C368.715 242.652 370.939 238.595 374.297 235.588C374.401 235.497 374.505 235.406 374.61 235.318C378.669 231.839 383.891 230.02 389.233 230.222C399.157 230.754 407.822 237.424 413.84 245.336C423.526 258.066 427.771 275.935 420.99 290.426C415.025 303.171 402.304 310.74 389.321 316.824C387.508 317.674 385.699 318.498 383.893 319.297C383.881 319.3 383.868 319.308 383.856 319.311C383.769 319.35 383.682 319.388 383.601 319.427C383.228 319.591 382.856 319.756 382.486 319.918L382.657 320.03L383.191 320.376C383.006 320.264 382.823 320.155 382.638 320.043C382.583 320.009 382.524 319.977 382.47 319.943C376.093 316.117 369.628 312.069 365.223 306.096C360.654 299.894 358.817 291.011 362.861 284.455Z" fill="#F1F1F1"/>
<path d="M405.403 270.052C406.815 273.264 407.751 276.665 408.182 280.147C408.521 283.252 408.393 286.39 407.804 289.458C406.538 295.761 403.776 301.668 399.752 306.682C396.716 310.489 393.211 313.896 389.32 316.824C387.507 317.674 385.698 318.498 383.892 319.297C383.88 319.3 383.867 319.308 383.855 319.311C383.768 319.349 383.681 319.388 383.6 319.427C383.227 319.591 382.854 319.756 382.485 319.918L382.656 320.03L383.19 320.376C383.005 320.264 382.822 320.155 382.637 320.043C382.582 320.009 382.523 319.977 382.468 319.943C383.872 315.034 384.078 309.861 383.07 304.856C382.062 299.852 379.869 295.162 376.675 291.179C373.464 287.246 369.369 284.128 364.724 282.079C365.016 281.777 365.324 281.492 365.641 281.214C367.43 282.036 369.143 283.014 370.76 284.137C376.543 288.134 380.886 293.887 383.145 300.544C385.161 306.583 385.413 313.072 383.871 319.25C384.191 319.041 384.512 318.826 384.824 318.612C390.765 314.606 396.239 309.795 400.363 303.895C403.92 298.909 406.196 293.125 406.991 287.052C407.781 280.418 406.121 273.895 403.16 267.975C399.889 261.643 395.768 255.787 390.911 250.571C386.032 245.211 380.516 240.468 374.485 236.448C374.35 236.356 374.254 236.216 374.219 236.056C374.184 235.896 374.211 235.728 374.296 235.588C374.361 235.461 374.473 235.363 374.609 235.318C374.678 235.301 374.75 235.299 374.82 235.313C374.89 235.327 374.955 235.357 375.012 235.4C375.757 235.897 376.495 236.398 377.224 236.914C383.297 241.214 388.812 246.252 393.644 251.912C398.312 257.368 402.56 263.43 405.403 270.052Z" fill="white"/>
<path d="M275.398 20.2681C280.518 20.2681 284.668 16.1177 284.668 10.9978C284.668 5.87802 280.518 1.72758 275.398 1.72758C270.278 1.72758 266.128 5.87802 266.128 10.9978C266.128 16.1177 270.278 20.2681 275.398 20.2681Z" fill="#F1F1F1"/>
<path d="M390.669 144.326C393.79 144.326 396.321 141.796 396.321 138.674C396.321 135.553 393.79 133.022 390.669 133.022C387.547 133.022 385.017 135.553 385.017 138.674C385.017 141.796 387.547 144.326 390.669 144.326Z" fill="#F1F1F1"/>
<path d="M225.257 159.833C228.379 159.833 230.909 157.303 230.909 154.182C230.909 151.06 228.379 148.53 225.257 148.53C222.136 148.53 219.605 151.06 219.605 154.182C219.605 157.303 222.136 159.833 225.257 159.833Z" fill="#F1F1F1"/>
<path d="M228.45 321H425.392C425.529 321 425.661 320.945 425.758 320.848C425.855 320.751 425.909 320.62 425.909 320.483C425.909 320.346 425.855 320.214 425.758 320.117C425.661 320.02 425.529 319.966 425.392 319.966H228.45C228.313 319.966 228.182 320.02 228.085 320.117C227.988 320.214 227.933 320.346 227.933 320.483C227.933 320.62 227.988 320.751 228.085 320.848C228.182 320.945 228.313 321 228.45 321Z" fill="#CBCBCB"/>
<path d="M403.658 49.9515C403.917 48.1155 403.493 46.2484 402.467 44.7041C401.441 43.1597 399.884 42.0453 398.091 41.5722C396.298 41.099 394.394 41.2999 392.74 42.1368C391.085 42.9736 389.795 44.3884 389.114 46.1128L373.133 64.4343L377.822 77.5311L393.894 56.1232C394.943 56.4591 396.053 56.5611 397.145 56.4218C398.238 56.2824 399.286 55.9053 400.217 55.3169C401.148 54.7285 401.939 53.9431 402.533 53.0161C403.128 52.0891 403.512 51.043 403.658 49.9515Z" fill="#FFB7B7"/>
<path d="M337.412 121.24L390.462 64.6239L383.306 53.2478L316.768 109.521L337.412 121.24Z" fill="#3F3D56"/>
<path d="M325.573 86.8406C335.851 86.8406 344.182 78.5093 344.182 68.232C344.182 57.9547 335.851 49.6233 325.573 49.6233C315.296 49.6233 306.965 57.9547 306.965 68.232C306.965 78.5093 315.296 86.8406 325.573 86.8406Z" fill="#2F2E41"/>
<path d="M327.067 57.7196C331.072 53.659 335.917 50.5255 341.263 48.5398C344.695 47.2685 348.43 46.483 352.018 47.205C355.605 47.9269 358.998 50.4088 359.999 53.9288C360.817 56.8071 359.972 59.9062 358.702 62.6157C357.432 65.3252 355.736 67.8378 354.709 70.6484C353.661 73.5162 353.346 76.6004 353.792 79.6209C354.238 82.6414 355.432 85.5027 357.265 87.9449C359.097 90.3871 361.511 92.333 364.286 93.6059C367.061 94.8787 370.111 95.4383 373.157 95.2337C369.632 95.7064 366.383 97.3629 362.937 98.2447C359.492 99.1264 355.425 99.0666 352.865 96.5982C350.156 93.9865 350.101 89.7403 350.232 85.9796C350.427 80.3893 350.622 74.7989 350.817 69.2085C350.916 66.3576 351.001 63.4152 349.972 60.7542C348.944 58.0932 346.501 55.7631 343.648 55.7874C341.486 55.8057 339.573 57.1154 337.839 58.407C336.105 59.6987 334.27 61.0767 332.116 61.2689C329.963 61.461 327.504 59.8673 327.665 57.7112L327.067 57.7196Z" fill="#2F2E41"/>
<path d="M254.894 193.18C253.108 193.677 251.201 193.5 249.536 192.685C247.871 191.87 246.562 190.472 245.859 188.756C245.156 187.041 245.106 185.127 245.72 183.377C246.333 181.627 247.567 180.163 249.188 179.263L265.264 161.024L278.861 163.962L259.737 182.694C260.207 183.69 260.453 184.777 260.458 185.878C260.462 186.979 260.225 188.068 259.764 189.068C259.302 190.068 258.627 190.954 257.785 191.665C256.944 192.375 255.957 192.893 254.894 193.18Z" fill="#FFB7B7"/>
<path d="M307.784 127.886L267.716 178.181L255.503 172.574L302.598 99.2528L307.784 127.886Z" fill="#3F3D56"/>
<path d="M275.815 279.756L266.265 279.606L267.414 312.154H275.813L275.815 279.756Z" fill="#FFB7B7"/>
<path d="M277.957 309.412L261.415 309.411H261.415C258.619 309.412 255.938 310.522 253.961 312.499C251.984 314.476 250.873 317.157 250.873 319.953V320.295L277.956 320.296L277.957 309.412Z" fill="#2F2E41"/>
<path d="M339.04 271.124L328.608 277.821L349.475 302.925L356.543 298.387L339.04 271.124Z" fill="#FFB7B7"/>
<path d="M356.865 294.922L342.945 303.858L342.945 303.859C340.592 305.369 338.936 307.752 338.341 310.484C337.745 313.216 338.259 316.072 339.77 318.425L339.955 318.713L362.745 304.081L356.865 294.922Z" fill="#2F2E41"/>
<path d="M342.757 171.738C342.757 171.738 319.579 94.7558 312.13 93.7155C304.682 92.6752 292.68 113.468 292.68 113.468C277.12 133.322 261.074 197.632 261.074 197.632C261.074 197.632 287.822 199.305 307.375 209.708C326.928 220.111 350.004 209.182 350.004 209.182L342.757 171.738Z" fill="#3F3D56"/>
<path opacity="0.1" d="M342.757 171.738C342.757 171.738 319.579 94.756 312.13 93.7157C304.682 92.6754 295.728 113.679 295.728 113.679C287.975 145.728 261.074 197.632 261.074 197.632C261.074 197.632 287.822 199.306 307.375 209.708C326.928 220.111 350.004 209.182 350.004 209.182L342.757 171.738Z" fill="black"/>
<path d="M323.742 148.705V187.388L328.294 243.423L351.038 285.809L340.183 293.563L309.169 253.244L296.902 213.21L277.637 301.834L263.164 300.8L273.216 177.925L292.29 143.339L323.742 148.705Z" fill="#2F2E41"/>
<path d="M300.373 111.29C293.136 118.527 299.856 126.281 299.856 126.281L291.585 144.889L324.151 153.677L335.531 102.824L327.777 94.5537C312.27 94.0368 312.262 93.7154 312.262 93.7154C309.545 96.3743 300.373 111.29 300.373 111.29Z" fill="#806491"/>
<path d="M336.844 97.5558C335.365 96.464 333.684 95.6766 331.898 95.239C330.113 94.8015 328.258 94.7226 326.442 95.0069C324.626 95.2912 322.884 95.933 321.318 96.8952C319.751 97.8574 318.391 99.1208 317.317 100.612C309.13 112.011 301.56 130.418 311.99 153.374C328.737 190.235 343.311 209.104 349.236 209.102C349.495 209.104 349.752 209.064 349.997 208.983C353.644 207.745 358.917 201.574 359.872 196.136C360.213 194.19 360.132 191.478 357.804 189.617C351.118 184.269 339.114 167.616 335.369 145.698C333.3 133.587 337.313 122.555 341.044 115.433C342.62 112.486 343.081 109.07 342.343 105.811C341.604 102.552 339.716 99.6682 337.024 97.6883L336.844 97.5558Z" fill="#3F3D56"/>
<path d="M326.53 85.0125C333.168 81.3837 335.607 73.0607 331.979 66.4225C328.35 59.7844 320.027 57.3447 313.389 60.9735C306.75 64.6023 304.311 72.9253 307.94 79.5634C311.568 86.2016 319.891 88.6412 326.53 85.0125Z" fill="#FFB7B7"/>
<path d="M300.696 71.9573H320.476L320.678 69.1175L321.693 71.9573H324.738L325.14 66.3289L327.15 71.9573H333.043V71.6784C333.039 67.76 331.481 64.0034 328.71 61.2326C325.939 58.4619 322.182 56.9033 318.264 56.8989H315.475C311.557 56.9033 307.8 58.4619 305.03 61.2326C302.259 64.0033 300.7 67.76 300.696 71.6784V71.9573Z" fill="#2F2E41"/>
<path d="M330.054 82.1649L338.495 79.4259V58.9276H322.552L322.946 59.3217C328.438 64.8066 334.546 84.2662 330.054 82.1649Z" fill="#2F2E41"/>
</g>
</g>
<defs>
<filter id="filter0_d_503_8" x="0" y="0" width="429.908" height="329" filterUnits="userSpaceOnUse" color-interpolation-filters="sRGB">
<feFlood flood-opacity="0" result="BackgroundImageFix"/>
<feColorMatrix in="SourceAlpha" type="matrix" values="0 0 0 0 0 0 0 0 0 0 0 0 0 0 0 0 0 0 127 0" result="hardAlpha"/>
<feOffset dy="4"/>
<feGaussianBlur stdDeviation="2"/>
<feComposite in2="hardAlpha" operator="out"/>
<feColorMatrix type="matrix" values="0 0 0 0 0 0 0 0 0 0 0 0 0 0 0 0 0 0 0.25 0"/>
<feBlend mode="normal" in2="BackgroundImageFix" result="effect1_dropShadow_503_8"/>
<feBlend mode="normal" in="SourceGraphic" in2="effect1_dropShadow_503_8" result="shape"/>
</filter>
<clipPath id="clip0_503_8">
<rect width="421.908" height="321" fill="white" transform="translate(4)"/>
</clipPath>
</defs>
</svg>
