<svg width="20" height="20" viewBox="0 0 20 20" fill="none" xmlns="http://www.w3.org/2000/svg">
<path d="M19.0058 10.214C19.0066 9.57471 18.9522 8.93655 18.8431 8.30652H9.93475V11.9195H15.0371C14.9327 12.4965 14.7117 13.0466 14.3874 13.5365C14.0632 14.0265 13.6424 14.4462 13.1504 14.7702V17.1155H16.1956C17.9785 15.4829 19.0058 13.0686 19.0058 10.214Z" fill="#123776"/>
<path d="M9.93483 19.3814C12.484 19.3814 14.6304 18.5502 16.1956 17.117L13.1505 14.7717C12.303 15.3424 11.2114 15.6681 9.93483 15.6681C7.47092 15.6681 5.37961 14.0187 4.63178 11.7959H1.49481V14.2128C2.28104 15.7665 3.48664 17.0726 4.97701 17.9853C6.46739 18.898 8.18387 19.3814 9.93483 19.3814Z" fill="#34A853"/>
<path d="M4.63172 11.7956C4.23637 10.6308 4.23637 9.36948 4.63172 8.20474V5.78784H1.49476C0.833351 7.09486 0.488892 8.53737 0.488892 10.0001C0.488892 11.4629 0.833351 12.9054 1.49476 14.2125L4.63172 11.7956Z" fill="#FBBC04"/>
<path d="M9.93483 4.33244C11.282 4.31058 12.5837 4.81604 13.5585 5.73958L16.2547 3.0621C14.5451 1.46744 12.2802 0.591942 9.93483 0.619146C8.18387 0.619225 6.46739 1.1026 4.97701 2.01529C3.48664 2.92799 2.28104 4.23409 1.49481 5.78778L4.63178 8.20468C5.37961 5.98192 7.47092 4.33244 9.93483 4.33244Z" fill="#EA4335"/>
</svg>
