<svg width="271" height="195" viewBox="0 0 271 195" fill="none" xmlns="http://www.w3.org/2000/svg">
<g clip-path="url(#clip0_121_147)">
<path d="M198.828 0.112518H0.0847778V127.397H198.828V0.112518Z" fill="#E6E6E6"/>
<path d="M193.145 16.0771H5.76788V119.866H193.145V16.0771Z" fill="white"/>
<path d="M198.744 0H0V8.44327H198.744V0Z" fill="#806491"/>
<path d="M6.27467 5.88193C7.13901 5.88193 7.83971 5.18124 7.83971 4.31689C7.83971 3.45254 7.13901 2.75185 6.27467 2.75185C5.41032 2.75185 4.70963 3.45254 4.70963 4.31689C4.70963 5.18124 5.41032 5.88193 6.27467 5.88193Z" fill="white"/>
<path d="M12.2145 5.88193C13.0789 5.88193 13.7796 5.18124 13.7796 4.31689C13.7796 3.45254 13.0789 2.75185 12.2145 2.75185C11.3502 2.75185 10.6495 3.45254 10.6495 4.31689C10.6495 5.18124 11.3502 5.88193 12.2145 5.88193Z" fill="white"/>
<path d="M18.1544 5.88193C19.0188 5.88193 19.7195 5.18124 19.7195 4.31689C19.7195 3.45254 19.0188 2.75185 18.1544 2.75185C17.2901 2.75185 16.5894 3.45254 16.5894 4.31689C16.5894 5.18124 17.2901 5.88193 18.1544 5.88193Z" fill="white"/>
<path d="M65.4706 24.614H28.8224V64.3742H65.4706V24.614Z" fill="#E6E6E6"/>
<path d="M117.78 24.614H81.1321V64.3742H117.78V24.614Z" fill="#E6E6E6"/>
<path d="M170.09 24.614H133.442V64.3742H170.09V24.614Z" fill="#E6E6E6"/>
<path d="M65.4706 71.5708H28.8224V111.331H65.4706V71.5708Z" fill="#E6E6E6"/>
<path d="M117.78 71.5708H81.1321V111.331H117.78V71.5708Z" fill="#E6E6E6"/>
<path d="M170.09 71.5708H133.442V111.331H170.09V71.5708Z" fill="#E6E6E6"/>
<path d="M89.9901 81.7894L96.6861 79.142L97.4648 92.3784C97.4648 92.3784 98.8661 96.4271 98.3991 97.9845C98.3991 97.9845 98.7105 100.632 97.9318 100.787C97.1531 100.943 94.9725 101.255 94.8183 101.099C94.6642 100.943 94.6627 100.476 94.6627 100.476C94.6627 100.476 93.1053 101.566 92.9497 102.812C92.9497 102.812 86.4093 104.836 86.2536 102.967C86.098 101.099 89.5237 99.5412 89.5237 99.5412L92.171 95.4925L89.9901 81.7894Z" fill="white"/>
<path d="M104.161 81.7894L110.857 79.142L111.635 92.3784C111.635 92.3784 113.037 96.4271 112.57 97.9845C112.57 97.9845 112.881 100.632 112.102 100.787C111.324 100.943 109.143 101.255 108.989 101.099C108.835 100.943 108.833 100.476 108.833 100.476C108.833 100.476 107.276 101.566 107.12 102.812C107.12 102.812 100.58 104.836 100.424 102.967C100.268 101.099 103.694 99.5412 103.694 99.5412L106.341 95.4925L104.161 81.7894Z" fill="white"/>
<path d="M104.816 30.6751C104.816 30.6751 103.39 34.659 105.042 36.4556L103.665 41.1883C103.665 41.1883 108.558 55.8683 107.16 57.9189C107.16 57.9189 101.94 60.5286 91.5002 56.9867L95.741 40.5357L95.1352 33.5918L95.974 30.3295L97.8381 30.1445C97.8381 30.1445 96.7197 34.3387 98.7702 34.9913C100.821 35.6439 102.821 30.2493 102.821 30.2493L104.816 30.6751Z" fill="#3F3D56"/>
<path d="M38.9707 56.3924L40.77 57.1285L49.3575 45.8421L52.0563 59.0912L53.8557 58.7641C55.0098 47.3415 55.9518 35.6908 54.7962 30.1803L48.1306 29.8939L45.1048 39.5459L43.6325 46.0887L38.9707 56.3924Z" fill="white"/>
<path d="M148.174 30.09C148.174 30.09 145.719 33.5037 145.839 34.8813C145.959 36.2589 147.516 58.7182 147.516 58.7182L151.169 58.8979L150.09 42.7271L150.988 38.3551L153.205 58.7182L157.696 58.8381L153.684 32.426L152.905 30.0903L148.174 30.09Z" fill="white"/>
<path d="M162.053 85.0856C161.401 84.3032 160.28 83.8803 159.204 83.6516C159.235 83.5539 155.931 82.871 155.875 83.0116L154.629 82.0193L150.801 84.0067L148.651 82.5424L147.651 82.8969C147.692 82.7206 144.55 83.265 144.55 83.265C143.95 83.2866 143.183 83.3242 142.325 83.3902C139.32 83.6214 139.088 91.4049 139.088 91.4049C140.471 90.8393 141.945 90.5306 143.439 90.494L144.251 99.8035C148.429 99.4453 152.811 99.8621 157.352 100.882L159.482 93.5643L164.442 91.6355C164.442 91.6355 163.594 86.9349 162.053 85.0856Z" fill="#3F3D56"/>
<path d="M55.6229 80.6525C55.0856 80.0079 54.1624 79.6593 53.2755 79.4709C53.302 79.3902 50.5786 78.8279 50.532 78.9438L49.5055 78.1263L46.3523 79.7638L44.5801 78.5576L43.757 78.8498C43.7906 78.7046 41.2016 79.1528 41.2016 79.1528C40.7083 79.1707 40.0752 79.2015 39.3683 79.2561C36.8921 79.4466 36.7016 85.8593 36.7016 85.8593C37.8409 85.3932 39.0557 85.1389 40.2863 85.1087L40.9556 103.886C44.3979 103.591 48.0083 103.935 51.7493 104.775L53.504 87.6389L57.5906 86.0498C57.5906 86.0498 56.8927 82.1769 55.6229 80.6525Z" fill="white"/>
<path d="M231.026 85.6506H248.597V76.2487C248.597 73.9186 247.672 71.684 246.024 70.0364C244.376 68.3888 242.142 67.4632 239.812 67.4632C237.482 67.4632 235.247 68.3888 233.599 70.0364C231.952 71.684 231.026 73.9186 231.026 76.2487V85.6506Z" fill="#2F2E41"/>
<path d="M223.183 190.257H219.404L217.605 175.679H223.183L223.183 190.257Z" fill="#FFB6B6"/>
<path d="M224.147 189.023H216.704C215.446 189.023 214.239 189.523 213.35 190.412C212.461 191.302 211.961 192.508 211.961 193.766V193.92H224.147V189.023Z" fill="#2F2E41"/>
<path d="M268.359 185.214L265.068 187.072L256.336 175.262L261.193 172.52L268.359 185.214Z" fill="#FFB6B6"/>
<path d="M268.592 183.665L262.111 187.323C261.016 187.942 260.211 188.97 259.874 190.182C259.536 191.394 259.694 192.69 260.313 193.785L260.388 193.919L271 187.929L268.592 183.665Z" fill="#2F2E41"/>
<path d="M244.206 124.699L244.498 126.157C244.498 126.157 245.372 127.032 244.935 127.469C244.498 127.907 244.643 129.948 244.643 129.948C244.888 133.671 249.752 154.59 250.622 158.675C250.622 158.675 257.33 163.049 262.579 171.653C267.829 180.256 267.974 182.443 267.974 182.443L262.142 184.923L247.561 167.278C247.561 167.278 243.478 164.799 242.02 162.612C240.562 160.425 231.519 137.823 231.519 137.823L226.415 161.446C226.415 161.446 226.706 170.049 225.394 175.59C224.587 179.087 224.099 182.65 223.936 186.235L217.082 185.506C217.082 185.506 217.52 164.799 218.249 162.612C218.249 162.612 215.187 137.385 221.311 127.324L226.247 114.165L231.081 112.304L244.206 124.699Z" fill="#2F2E41"/>
<path d="M239.902 69.7616C230.702 69.9188 230.703 83.6047 239.902 83.7604C249.102 83.6032 249.101 69.9173 239.902 69.7616Z" fill="#FFB8B8"/>
<path d="M232.821 76.3979H234.385L234.811 75.3331L234.598 76.3979H243.15L242.873 74.1701L244.952 76.3979H247.026V75.1907C247.026 74.2581 246.843 73.3345 246.487 72.4726C246.131 71.6108 245.608 70.8275 244.949 70.1676C244.29 69.5077 243.508 68.984 242.646 68.6265C241.785 68.269 240.862 68.0846 239.929 68.084C238.996 68.0833 238.073 68.2664 237.211 68.6227C236.349 68.9789 235.566 69.5015 234.906 70.1605C234.246 70.8195 233.722 71.602 233.365 72.4634C233.007 73.3247 232.823 74.2481 232.822 75.1807V75.1907L232.821 76.3979Z" fill="#2F2E41"/>
<path d="M230.415 87.8473L247.801 87.9882L244.127 125.262C244.127 125.262 223.795 124.189 223.782 117.983L225.687 112.468L230.415 87.8473Z" fill="#3F3D56"/>
<path d="M248.548 128.865C248.281 128.538 248.088 128.156 247.985 127.747C247.881 127.337 247.868 126.91 247.948 126.495C248.027 126.079 248.196 125.687 248.444 125.344C248.691 125.002 249.011 124.718 249.38 124.512L248.625 117.95L252.5 116.518L253.437 125.8C253.74 126.443 253.796 127.175 253.596 127.856C253.396 128.538 252.953 129.123 252.351 129.5C251.749 129.877 251.03 130.021 250.329 129.904C249.628 129.787 248.995 129.418 248.548 128.865Z" fill="#FFB6B6"/>
<path d="M245.515 91.1993L247.802 88.0017C247.802 88.0017 249.368 87.6543 251.217 89.8122C253.067 91.97 254.146 118.943 254.146 118.943L247.364 120.484L243.357 101.372L245.515 91.1993Z" fill="#3F3D56"/>
<path d="M207.193 120.45L207.697 144.413L223.211 152.611L251.462 147.566L252.156 122.657L234.246 116.35L207.193 120.45Z" fill="white"/>
<path d="M223.17 152.87L207.453 144.564L206.941 120.237L234.27 116.096L234.329 116.117L252.409 122.483L251.704 147.774L223.17 152.87ZM207.942 144.262L223.251 152.352L251.22 147.358L251.903 122.83L234.222 116.605L207.445 120.662L207.942 144.262Z" fill="#CACACA"/>
<path d="M222.864 126.947L222.804 126.923L207.102 120.68L207.284 120.219L222.926 126.438L252.122 122.411L252.19 122.902L222.864 126.947Z" fill="#CACACA"/>
<path d="M223.143 126.69L222.648 126.696L222.963 152.614L223.458 152.608L223.143 126.69Z" fill="#CACACA"/>
<path d="M220.88 125.706L215.22 123.412L242.469 119.07L248.129 121.364L220.88 125.706Z" fill="#CACACA"/>
<path d="M207.291 127.401L207.095 127.856L213.66 130.683L213.856 130.228L207.291 127.401Z" fill="#CACACA"/>
<path d="M210.264 135.576L210.068 136.031L216.633 138.858L216.828 138.403L210.264 135.576Z" fill="#806491"/>
<path d="M120.88 153.742L121.384 177.705L136.897 185.903L165.149 180.858L165.843 155.949L147.933 149.643L120.88 153.742Z" fill="white"/>
<path d="M136.857 186.162L121.14 177.856L120.628 153.529L147.957 149.388L148.016 149.409L166.096 155.775L165.391 181.067L136.857 186.162ZM121.629 177.554L136.938 185.644L164.907 180.65L165.59 156.123L147.909 149.897L121.132 153.954L121.629 177.554Z" fill="#CACACA"/>
<path d="M136.551 160.239L136.491 160.215L120.788 153.972L120.971 153.512L136.613 159.73L165.809 155.704L165.877 156.194L136.551 160.239Z" fill="#CACACA"/>
<path d="M136.83 159.982L136.334 159.988L136.65 185.906L137.145 185.9L136.83 159.982Z" fill="#CACACA"/>
<path d="M133.196 158.434L128.907 156.704L156.155 152.362L160.444 154.093L133.196 158.434Z" fill="#CACACA"/>
<path d="M120.978 160.693L120.782 161.148L127.347 163.975L127.543 163.52L120.978 160.693Z" fill="#CACACA"/>
<path d="M123.951 168.868L123.755 169.323L130.319 172.15L130.515 171.695L123.951 168.868Z" fill="#806491"/>
<path d="M147.831 157.027L148.416 184.845L166.425 194.362L199.22 188.505L200.025 159.59L179.235 152.269L147.831 157.027Z" fill="#806491"/>
<path d="M166.378 194.662L148.132 185.02L147.538 156.781L179.263 151.974L179.331 151.998L200.319 159.388L199.501 188.747L166.378 194.662ZM148.7 184.67L166.471 194.061L198.939 188.263L199.732 159.791L179.207 152.564L148.123 157.274L148.7 184.67Z" fill="#3F3D56"/>
<path d="M166.023 164.57L165.952 164.542L147.724 157.295L147.937 156.76L166.094 163.979L199.986 159.305L200.065 159.874L166.023 164.57Z" fill="#3F3D56"/>
<path d="M166.346 164.271L165.771 164.278L166.137 194.365L166.712 194.358L166.346 164.271Z" fill="#3F3D56"/>
<path d="M162.419 162.488L157.148 160.466L188.78 155.426L194.051 157.448L162.419 162.488Z" fill="#3F3D56"/>
<path d="M147.944 165.097L147.717 165.625L155.338 168.906L155.565 168.378L147.944 165.097Z" fill="#3F3D56"/>
<path d="M151.395 174.587L151.168 175.115L158.788 178.396L159.016 177.868L151.395 174.587Z" fill="white"/>
<path d="M215.989 124.412C216.371 124.232 216.71 123.971 216.98 123.647C217.251 123.322 217.447 122.942 217.555 122.534C217.663 122.125 217.68 121.698 217.605 121.282C217.53 120.867 217.365 120.472 217.121 120.127L220.642 114.538L217.768 111.57L212.906 119.533C212.354 119.981 211.985 120.616 211.87 121.318C211.754 122.02 211.901 122.74 212.28 123.341C212.66 123.943 213.248 124.384 213.931 124.581C214.614 124.779 215.347 124.719 215.989 124.412V124.412Z" fill="#FFB6B6"/>
<path d="M233.086 89.3165L230.564 87.6543C230.564 87.6543 228.617 88.0908 226.547 92.0729C224.477 96.0551 216.128 113.858 216.128 113.858L219.56 117.342L228.715 103.375L233.086 89.3165Z" fill="#3F3D56"/>
</g>
<defs>
<clipPath id="clip0_121_147">
<rect width="271" height="194.662" fill="white"/>
</clipPath>
</defs>
</svg>
