<svg width="37" height="37" viewBox="0 0 37 37" fill="none" xmlns="http://www.w3.org/2000/svg">
<path fill-rule="evenodd" clip-rule="evenodd" d="M23.5511 11.0514C22.0779 10.0671 20.3459 9.54165 18.5741 9.54165V0.583313C22.1176 0.583313 25.5816 1.63411 28.528 3.60282C31.4744 5.57152 33.7708 8.36973 35.1269 11.6435C36.4829 14.9174 36.8378 18.5199 36.1465 21.9953C35.4552 25.4708 33.7488 28.6633 31.243 31.1689C28.7374 33.6747 25.5449 35.3811 22.0694 36.0724C18.594 36.7637 14.9915 36.4088 11.7176 35.0528C8.44381 33.6967 5.64562 31.4003 3.67691 28.4539C1.7082 25.5075 0.65741 22.0435 0.65741 18.5H9.61574C9.61574 20.2718 10.1411 22.0038 11.1255 23.477C12.1098 24.9502 13.5089 26.0983 15.1459 26.7764C16.7828 27.4545 18.584 27.6318 20.3218 27.2861C22.0595 26.9405 23.6557 26.0873 24.9086 24.8345C26.1614 23.5816 27.0146 21.9854 27.3602 20.2477C27.7059 18.5099 27.5286 16.7087 26.8505 15.0718C26.1724 13.4348 25.0243 12.0357 23.5511 11.0514Z" fill="#806491"/>
</svg>
