<svg width="167" height="41" viewBox="0 0 167 41" fill="none" xmlns="http://www.w3.org/2000/svg">
<g clip-path="url(#clip0_1_20)">
<path fill-rule="evenodd" clip-rule="evenodd" d="M21.3018 13.4581C19.948 12.5535 18.3563 12.0707 16.7281 12.0707V3.83838C19.9845 3.83838 23.1678 4.80401 25.8754 6.61317C28.583 8.42233 30.6933 10.9938 31.9395 14.0023C33.1856 17.0108 33.5117 20.3213 32.8764 23.5151C32.2411 26.7089 30.673 29.6427 28.3704 31.9453C26.0678 34.2479 23.134 35.816 19.9402 36.4513C16.7464 37.0866 13.4359 36.7605 10.4274 35.5144C7.41885 34.2682 4.84743 32.1579 3.03828 29.4503C1.22912 26.7427 0.263481 23.5594 0.263481 20.303H8.4958C8.4958 21.9312 8.97863 23.5229 9.8832 24.8767C10.7878 26.2305 12.0735 27.2856 13.5778 27.9087C15.082 28.5318 16.7373 28.6948 18.3342 28.3771C19.9311 28.0595 21.3979 27.2755 22.5493 26.1242C23.7006 24.9728 24.4846 23.506 24.8022 21.9091C25.1199 20.3122 24.9569 18.6569 24.3338 17.1527C23.7107 15.6484 22.6556 14.3627 21.3018 13.4581Z" fill="#806491"/>
<path fill-rule="evenodd" clip-rule="evenodd" d="M8.4958 3.83838C8.4958 4.91947 8.28287 5.98997 7.86915 6.98876C7.45544 7.98755 6.84905 8.89507 6.08461 9.65952C5.32017 10.424 4.41265 11.0303 3.41385 11.4441C2.41506 11.8578 1.34456 12.0707 0.263481 12.0707L0.263481 20.303C2.42565 20.303 4.56664 19.8772 6.56423 19.0497C8.56182 18.2223 10.3769 17.0095 11.9057 15.4806C13.4346 13.9518 14.6474 12.1367 15.4748 10.1391C16.3023 8.14154 16.7281 6.00054 16.7281 3.83838L8.4958 3.83838Z" fill="#806491"/>
<path d="M103.677 15.7361H99.6829V28.424H103.677V15.7361Z" fill="#806491"/>
<path d="M100.127 13.3604C100.545 13.7781 101.067 13.9869 101.693 13.9869C102.32 13.9869 102.833 13.7781 103.233 13.3604C103.634 12.9253 103.834 12.4031 103.834 11.7939C103.834 11.1674 103.634 10.6452 103.233 10.2276C102.833 9.80983 102.32 9.60098 101.693 9.60098C101.067 9.60098 100.545 9.80983 100.127 10.2276C99.7264 10.6452 99.5264 11.1674 99.5264 11.7939C99.5264 12.4031 99.7264 12.9253 100.127 13.3604Z" fill="#806491"/>
<path d="M42.377 28.4241V9.99261H46.4758V24.8214H54.6473V28.4241H42.377Z" fill="#806491"/>
<path fill-rule="evenodd" clip-rule="evenodd" d="M62.0286 28.7112C60.7233 28.7112 59.5398 28.424 58.4781 27.8497C57.4338 27.2579 56.6071 26.4573 55.9979 25.4478C55.3888 24.4384 55.0842 23.3071 55.0842 22.054C55.0842 20.8008 55.3888 19.6783 55.9979 18.6862C56.6071 17.6941 57.4338 16.9109 58.4781 16.3366C59.5224 15.7448 60.7059 15.4489 62.0286 15.4489C63.3514 15.4489 64.5349 15.7361 65.5791 16.3104C66.6234 16.8848 67.4502 17.6767 68.0593 18.6862C68.6685 19.6783 68.9731 20.8008 68.9731 22.054C68.9731 23.3071 68.6685 24.4384 68.0593 25.4478C67.4502 26.4573 66.6234 27.2579 65.5791 27.8497C64.5349 28.424 63.3514 28.7112 62.0286 28.7112ZM62.0286 25.0824C62.603 25.0824 63.1077 24.9605 63.5429 24.7169C63.9779 24.4558 64.3086 24.099 64.5349 23.6465C64.7785 23.1766 64.9004 22.6457 64.9004 22.054C64.9004 21.4622 64.7785 20.9488 64.5349 20.5137C64.2912 20.0612 63.9518 19.7131 63.5167 19.4694C63.099 19.2083 62.603 19.0778 62.0286 19.0778C61.4717 19.0778 60.9757 19.2083 60.5405 19.4694C60.1055 19.7131 59.766 20.0612 59.5224 20.5137C59.2787 20.9662 59.1569 21.4883 59.1569 22.08C59.1569 22.6544 59.2787 23.1766 59.5224 23.6465C59.766 24.099 60.1055 24.4558 60.5405 24.7169C60.9757 24.9605 61.4717 25.0824 62.0286 25.0824Z" fill="#806491"/>
<path fill-rule="evenodd" clip-rule="evenodd" d="M72.1365 33.3844C73.1981 33.8716 74.4252 34.1153 75.8176 34.1153C77.1751 34.1153 78.3848 33.8455 79.4464 33.306C80.5081 32.7665 81.3434 32.0181 81.9526 31.0609C82.5618 30.1036 82.8668 28.9723 82.8668 27.6669V15.7362H78.9503V16.5886C78.6591 16.3435 78.3283 16.1377 77.9583 15.9711C77.2795 15.6404 76.505 15.475 75.6348 15.475C74.4687 15.475 73.4331 15.7535 72.5281 16.3105C71.623 16.85 70.9095 17.5984 70.3873 18.5557C69.8651 19.4955 69.6042 20.5572 69.6042 21.7407C69.6042 22.9068 69.8651 23.9685 70.3873 24.9257C70.9095 25.883 71.623 26.6401 72.5281 27.197C73.4331 27.754 74.4687 28.0325 75.6348 28.0325C76.4876 28.0325 77.2621 27.8672 77.9583 27.5365C78.2955 27.3763 78.6001 27.1875 78.872 26.9701V27.7714C78.872 28.659 78.5849 29.3465 78.0105 29.8339C77.4536 30.3212 76.6791 30.5648 75.687 30.5648C74.8864 30.5648 74.1989 30.4256 73.6246 30.1471C73.0677 29.8687 72.5629 29.4596 72.1103 28.9201L69.6563 31.3741C70.2655 32.2444 71.0922 32.9145 72.1365 33.3844ZM77.8278 24.1164C77.4274 24.3601 76.9489 24.4819 76.3919 24.4819C75.835 24.4819 75.3476 24.3601 74.9299 24.1164C74.5296 23.8727 74.2163 23.5421 73.9901 23.1243C73.7638 22.6893 73.6507 22.228 73.6507 21.7407C73.6507 21.2186 73.7638 20.7487 73.9901 20.331C74.2163 19.9132 74.5383 19.5826 74.956 19.3389C75.3737 19.0952 75.8523 18.9734 76.3919 18.9734C76.9489 18.9734 77.4274 19.0952 77.8278 19.3389C78.2455 19.5826 78.5587 19.9132 78.7676 20.331C78.9939 20.7487 79.107 21.2186 79.107 21.7407C79.107 22.2628 78.9939 22.7327 78.7676 23.1504C78.5587 23.5508 78.2455 23.8727 77.8278 24.1164Z" fill="#806491"/>
<path fill-rule="evenodd" clip-rule="evenodd" d="M91.2727 28.7112C89.9671 28.7112 88.7833 28.424 87.7221 27.8497C86.6774 27.2579 85.8509 26.4573 85.2417 25.4478C84.6325 24.4384 84.3279 23.3071 84.3279 22.054C84.3279 20.8008 84.6325 19.6783 85.2417 18.6862C85.8509 17.6941 86.6774 16.9109 87.7221 16.3366C88.766 15.7448 89.9498 15.4489 91.2727 15.4489C92.5948 15.4489 93.7787 15.7361 94.8225 16.3104C95.8672 16.8848 96.6937 17.6767 97.3029 18.6862C97.9121 19.6783 98.2167 20.8008 98.2167 22.054C98.2167 23.3071 97.9121 24.4384 97.3029 25.4478C96.6937 26.4573 95.8672 27.2579 94.8225 27.8497C93.7787 28.424 92.5948 28.7112 91.2727 28.7112ZM91.2727 25.0824C91.8465 25.0824 92.3512 24.9605 92.7867 24.7169C93.2213 24.4558 93.5523 24.099 93.7787 23.6465C94.0223 23.1766 94.1442 22.6457 94.1442 22.054C94.1442 21.4622 94.0223 20.9488 93.7787 20.5137C93.535 20.0612 93.1958 19.7131 92.7603 19.4694C92.3429 19.2083 91.8465 19.0778 91.2727 19.0778C90.7154 19.0778 90.219 19.2083 89.7843 19.4694C89.3488 19.7131 89.0097 20.0612 88.766 20.5137C88.5223 20.9662 88.4005 21.4883 88.4005 22.08C88.4005 22.6544 88.5223 23.1766 88.766 23.6465C89.0097 24.099 89.3488 24.4558 89.7843 24.7169C90.219 24.9605 90.7154 25.0824 91.2727 25.0824Z" fill="#806491"/>
<path fill-rule="evenodd" clip-rule="evenodd" d="M113.278 28.6851C112.426 28.6851 111.642 28.5198 110.928 28.1891C110.553 28.0151 110.214 27.8073 109.911 27.5658V33.776H105.968V15.7362H109.963V16.6118C110.252 16.3748 110.574 16.1699 110.928 15.9972C111.642 15.6491 112.426 15.475 113.278 15.475C114.479 15.475 115.541 15.7623 116.463 16.3366C117.403 16.9109 118.134 17.6941 118.656 18.6862C119.196 19.6783 119.465 20.8096 119.465 22.0801C119.465 23.3507 119.196 24.4819 118.656 25.474C118.134 26.4661 117.403 27.2492 116.463 27.8236C115.541 28.398 114.479 28.6851 113.278 28.6851ZM112.548 25.0824C113.121 25.0824 113.618 24.9518 114.035 24.6908C114.471 24.4297 114.81 24.0729 115.053 23.6204C115.297 23.1679 115.419 22.6544 115.419 22.0801C115.419 21.4883 115.297 20.9662 115.053 20.5137C114.81 20.0612 114.471 19.7131 114.035 19.4694C113.618 19.2083 113.13 19.0778 112.573 19.0778C112.017 19.0778 111.52 19.2083 111.085 19.4694C110.667 19.7131 110.337 20.0612 110.093 20.5137C109.85 20.9662 109.728 21.4883 109.728 22.0801C109.728 22.6544 109.841 23.1679 110.067 23.6204C110.311 24.0729 110.65 24.4297 111.085 24.6908C111.52 24.9518 112.008 25.0824 112.548 25.0824Z" fill="#806491"/>
<path d="M123.375 28.4501C124.106 28.6416 124.845 28.7372 125.593 28.7372C127.177 28.7372 128.43 28.3718 129.353 27.6408C130.292 26.9098 130.762 25.9265 130.762 24.6907C130.762 23.8901 130.615 23.2461 130.319 22.7588C130.023 22.2541 129.64 21.8538 129.17 21.5579C128.7 21.262 128.204 21.027 127.682 20.853C127.16 20.6789 126.663 20.531 126.194 20.4092C125.724 20.2873 125.341 20.1481 125.045 19.9915C124.749 19.8348 124.601 19.6259 124.601 19.3649C124.601 19.1212 124.715 18.9385 124.94 18.8166C125.167 18.6774 125.506 18.6079 125.959 18.6079C126.429 18.6079 126.907 18.7035 127.394 18.895C127.899 19.0864 128.352 19.4172 128.752 19.8871L131.023 17.5897C130.45 16.8586 129.701 16.3104 128.778 15.9449C127.874 15.5621 126.882 15.3706 125.802 15.3706C124.776 15.3706 123.879 15.5446 123.114 15.8927C122.347 16.2408 121.755 16.7194 121.338 17.3286C120.921 17.9203 120.711 18.6252 120.711 19.4433C120.711 20.209 120.86 20.8443 121.155 21.3491C121.451 21.8363 121.834 22.2193 122.304 22.4977C122.774 22.7762 123.27 22.9938 123.792 23.1504C124.314 23.307 124.81 23.455 125.28 23.5943C125.75 23.7161 126.133 23.864 126.429 24.0381C126.742 24.1947 126.899 24.4297 126.899 24.7429C126.899 24.9866 126.768 25.178 126.507 25.3173C126.263 25.4565 125.907 25.5261 125.437 25.5261C124.758 25.5261 124.131 25.4043 123.557 25.1606C122.983 24.8996 122.486 24.5428 122.069 24.0903L119.798 26.3876C120.233 26.8575 120.755 27.2753 121.364 27.6408C121.991 27.9888 122.661 28.2586 123.375 28.4501Z" fill="#806491"/>
<path d="M138.046 28.7112C136.881 28.7112 135.845 28.4762 134.94 28.0063C134.052 27.519 133.356 26.8576 132.852 26.0222C132.346 25.1694 132.094 24.1948 132.094 23.0982V15.7361H136.089V23.046C136.089 23.4811 136.158 23.8554 136.298 24.1686C136.454 24.4819 136.681 24.7256 136.976 24.8996C137.272 25.0737 137.629 25.1607 138.046 25.1607C138.638 25.1607 139.108 24.9779 139.456 24.6124C139.805 24.2295 139.978 23.7074 139.978 23.046V15.7361H143.973V23.0721C143.973 24.186 143.721 25.1694 143.215 26.0222C142.711 26.8576 142.015 27.519 141.127 28.0063C140.239 28.4762 139.213 28.7112 138.046 28.7112Z" fill="#806491"/>
<path d="M149.953 15.7362H145.958V28.4241H149.953V21.0097C149.953 20.5746 150.04 20.2091 150.214 19.9132C150.406 19.6174 150.658 19.3911 150.971 19.2345C151.285 19.0604 151.641 18.9734 152.041 18.9734C152.616 18.9734 153.094 19.1561 153.477 19.5216C153.878 19.8697 154.078 20.3658 154.078 21.0097V28.4241H158.072V21.0097C158.072 20.5746 158.16 20.2091 158.333 19.9132C158.525 19.6174 158.777 19.3911 159.091 19.2345C159.403 19.0604 159.761 18.9734 160.161 18.9734C160.735 18.9734 161.214 19.1561 161.597 19.5216C161.997 19.8697 162.197 20.3658 162.197 21.0097V28.4241H166.192V20.5659C166.192 19.5043 165.965 18.5992 165.513 17.8508C165.077 17.085 164.477 16.5019 163.711 16.1017C162.963 15.6839 162.101 15.475 161.127 15.475C160.135 15.475 159.238 15.6926 158.438 16.1278C157.918 16.405 157.463 16.7627 157.074 17.201C156.711 16.7426 156.269 16.3674 155.748 16.0755C155.053 15.6752 154.261 15.475 153.373 15.475C152.433 15.475 151.589 15.6752 150.841 16.0755C150.515 16.242 150.22 16.4415 149.953 16.6739V15.7362Z" fill="#806491"/>
</g>
<defs>
<clipPath id="clip0_1_20">
<rect width="166.293" height="32.9293" fill="white" transform="translate(0.263481 3.83838)"/>
</clipPath>
</defs>
</svg>
