<svg width="294" height="82" viewBox="0 0 294 82" fill="none" xmlns="http://www.w3.org/2000/svg">
<path d="M6.02296 46.336H11.543V49H2.66296V32.248H6.02296V46.336ZM12.8146 42.304C12.8146 40.96 13.0786 39.768 13.6066 38.728C14.1506 37.688 14.8786 36.888 15.7906 36.328C16.7186 35.768 17.7506 35.488 18.8866 35.488C19.8786 35.488 20.7426 35.688 21.4786 36.088C22.2306 36.488 22.8306 36.992 23.2786 37.6V35.704H26.6626V49H23.2786V47.056C22.8466 47.68 22.2466 48.2 21.4786 48.616C20.7266 49.016 19.8546 49.216 18.8626 49.216C17.7426 49.216 16.7186 48.928 15.7906 48.352C14.8786 47.776 14.1506 46.968 13.6066 45.928C13.0786 44.872 12.8146 43.664 12.8146 42.304ZM23.2786 42.352C23.2786 41.536 23.1186 40.84 22.7986 40.264C22.4786 39.672 22.0466 39.224 21.5026 38.92C20.9586 38.6 20.3746 38.44 19.7506 38.44C19.1266 38.44 18.5506 38.592 18.0226 38.896C17.4946 39.2 17.0626 39.648 16.7266 40.24C16.4066 40.816 16.2466 41.504 16.2466 42.304C16.2466 43.104 16.4066 43.808 16.7266 44.416C17.0626 45.008 17.4946 45.464 18.0226 45.784C18.5666 46.104 19.1426 46.264 19.7506 46.264C20.3746 46.264 20.9586 46.112 21.5026 45.808C22.0466 45.488 22.4786 45.04 22.7986 44.464C23.1186 43.872 23.2786 43.168 23.2786 42.352ZM33.3042 37.624C33.7362 37.016 34.3282 36.512 35.0802 36.112C35.8482 35.696 36.7202 35.488 37.6962 35.488C38.8322 35.488 39.8562 35.768 40.7682 36.328C41.6962 36.888 42.4242 37.688 42.9522 38.728C43.4962 39.752 43.7682 40.944 43.7682 42.304C43.7682 43.664 43.4962 44.872 42.9522 45.928C42.4242 46.968 41.6962 47.776 40.7682 48.352C39.8562 48.928 38.8322 49.216 37.6962 49.216C36.7202 49.216 35.8562 49.016 35.1042 48.616C34.3682 48.216 33.7682 47.712 33.3042 47.104V55.336H29.9442V35.704H33.3042V37.624ZM40.3362 42.304C40.3362 41.504 40.1682 40.816 39.8322 40.24C39.5122 39.648 39.0802 39.2 38.5362 38.896C38.0082 38.592 37.4322 38.44 36.8082 38.44C36.2002 38.44 35.6242 38.6 35.0802 38.92C34.5522 39.224 34.1202 39.672 33.7842 40.264C33.4642 40.856 33.3042 41.552 33.3042 42.352C33.3042 43.152 33.4642 43.848 33.7842 44.44C34.1202 45.032 34.5522 45.488 35.0802 45.808C35.6242 46.112 36.2002 46.264 36.8082 46.264C37.4322 46.264 38.0082 46.104 38.5362 45.784C39.0802 45.464 39.5122 45.008 39.8322 44.416C40.1682 43.824 40.3362 43.12 40.3362 42.304ZM50.1218 38.464V44.896C50.1218 45.344 50.2258 45.672 50.4338 45.88C50.6578 46.072 51.0258 46.168 51.5378 46.168H53.0978V49H50.9858C48.1538 49 46.7378 47.624 46.7378 44.872V38.464H45.1538V35.704H46.7378V32.416H50.1218V35.704H53.0978V38.464H50.1218ZM61.4185 49.216C60.1385 49.216 58.9865 48.936 57.9625 48.376C56.9385 47.8 56.1305 46.992 55.5385 45.952C54.9625 44.912 54.6745 43.712 54.6745 42.352C54.6745 40.992 54.9705 39.792 55.5625 38.752C56.1705 37.712 56.9945 36.912 58.0345 36.352C59.0745 35.776 60.2345 35.488 61.5145 35.488C62.7945 35.488 63.9545 35.776 64.9945 36.352C66.0345 36.912 66.8505 37.712 67.4425 38.752C68.0505 39.792 68.3545 40.992 68.3545 42.352C68.3545 43.712 68.0425 44.912 67.4185 45.952C66.8105 46.992 65.9785 47.8 64.9225 48.376C63.8825 48.936 62.7145 49.216 61.4185 49.216ZM61.4185 46.288C62.0265 46.288 62.5945 46.144 63.1225 45.856C63.6665 45.552 64.0985 45.104 64.4185 44.512C64.7385 43.92 64.8985 43.2 64.8985 42.352C64.8985 41.088 64.5625 40.12 63.8905 39.448C63.2345 38.76 62.4265 38.416 61.4665 38.416C60.5065 38.416 59.6985 38.76 59.0425 39.448C58.4025 40.12 58.0825 41.088 58.0825 42.352C58.0825 43.616 58.3945 44.592 59.0185 45.28C59.6585 45.952 60.4585 46.288 61.4185 46.288ZM74.1792 37.624C74.6112 37.016 75.2032 36.512 75.9552 36.112C76.7232 35.696 77.5952 35.488 78.5712 35.488C79.7072 35.488 80.7312 35.768 81.6432 36.328C82.5712 36.888 83.2992 37.688 83.8272 38.728C84.3712 39.752 84.6432 40.944 84.6432 42.304C84.6432 43.664 84.3712 44.872 83.8272 45.928C83.2992 46.968 82.5712 47.776 81.6432 48.352C80.7312 48.928 79.7072 49.216 78.5712 49.216C77.5952 49.216 76.7312 49.016 75.9792 48.616C75.2432 48.216 74.6432 47.712 74.1792 47.104V55.336H70.8192V35.704H74.1792V37.624ZM81.2112 42.304C81.2112 41.504 81.0432 40.816 80.7072 40.24C80.3872 39.648 79.9552 39.2 79.4112 38.896C78.8832 38.592 78.3072 38.44 77.6832 38.44C77.0752 38.44 76.4992 38.6 75.9552 38.92C75.4272 39.224 74.9952 39.672 74.6592 40.264C74.3392 40.856 74.1792 41.552 74.1792 42.352C74.1792 43.152 74.3392 43.848 74.6592 44.44C74.9952 45.032 75.4272 45.488 75.9552 45.808C76.4992 46.112 77.0752 46.264 77.6832 46.264C78.3072 46.264 78.8832 46.104 79.4112 45.784C79.9552 45.464 80.3872 45.008 80.7072 44.416C81.0432 43.824 81.2112 43.12 81.2112 42.304ZM92.1728 49.216C91.0848 49.216 90.1088 49.024 89.2448 48.64C88.3808 48.24 87.6928 47.704 87.1808 47.032C86.6848 46.36 86.4128 45.616 86.3648 44.8H89.7488C89.8128 45.312 90.0608 45.736 90.4928 46.072C90.9408 46.408 91.4928 46.576 92.1488 46.576C92.7888 46.576 93.2848 46.448 93.6368 46.192C94.0048 45.936 94.1888 45.608 94.1888 45.208C94.1888 44.776 93.9648 44.456 93.5168 44.248C93.0848 44.024 92.3888 43.784 91.4288 43.528C90.4368 43.288 89.6208 43.04 88.9808 42.784C88.3568 42.528 87.8128 42.136 87.3488 41.608C86.9008 41.08 86.6768 40.368 86.6768 39.472C86.6768 38.736 86.8848 38.064 87.3008 37.456C87.7328 36.848 88.3408 36.368 89.1248 36.016C89.9248 35.664 90.8608 35.488 91.9328 35.488C93.5168 35.488 94.7808 35.888 95.7248 36.688C96.6688 37.472 97.1888 38.536 97.2848 39.88H94.0688C94.0208 39.352 93.7968 38.936 93.3968 38.632C93.0128 38.312 92.4928 38.152 91.8368 38.152C91.2288 38.152 90.7568 38.264 90.4208 38.488C90.1008 38.712 89.9408 39.024 89.9408 39.424C89.9408 39.872 90.1648 40.216 90.6128 40.456C91.0608 40.68 91.7568 40.912 92.7008 41.152C93.6608 41.392 94.4528 41.64 95.0768 41.896C95.7008 42.152 96.2368 42.552 96.6848 43.096C97.1488 43.624 97.3888 44.328 97.4048 45.208C97.4048 45.976 97.1888 46.664 96.7568 47.272C96.3408 47.88 95.7328 48.36 94.9328 48.712C94.1488 49.048 93.2288 49.216 92.1728 49.216ZM118.77 49L116.946 47.2C115.394 48.592 113.498 49.288 111.258 49.288C110.026 49.288 108.938 49.08 107.994 48.664C107.066 48.232 106.346 47.632 105.834 46.864C105.322 46.08 105.066 45.176 105.066 44.152C105.066 43.048 105.378 42.056 106.002 41.176C106.626 40.296 107.546 39.584 108.762 39.04C108.33 38.512 108.018 38.008 107.826 37.528C107.634 37.032 107.538 36.504 107.538 35.944C107.538 35.176 107.738 34.488 108.138 33.88C108.538 33.256 109.106 32.768 109.842 32.416C110.594 32.064 111.466 31.888 112.458 31.888C113.466 31.888 114.33 32.08 115.05 32.464C115.77 32.848 116.306 33.36 116.658 34C117.01 34.64 117.162 35.352 117.114 36.136H113.85C113.866 35.608 113.738 35.208 113.466 34.936C113.194 34.648 112.826 34.504 112.362 34.504C111.914 34.504 111.538 34.64 111.234 34.912C110.946 35.168 110.802 35.504 110.802 35.92C110.802 36.32 110.922 36.72 111.162 37.12C111.402 37.504 111.794 37.984 112.338 38.56L116.562 42.736C116.594 42.704 116.618 42.672 116.634 42.64C116.65 42.608 116.666 42.576 116.682 42.544L118.05 40.264H121.554L119.874 43.216C119.554 43.84 119.21 44.432 118.842 44.992L122.898 49H118.77ZM111.354 46.504C112.666 46.504 113.826 46.04 114.834 45.112L110.706 41.032C109.154 41.72 108.378 42.696 108.378 43.96C108.378 44.68 108.65 45.288 109.194 45.784C109.738 46.264 110.458 46.504 111.354 46.504ZM135.488 35.488C136.48 35.488 137.352 35.688 138.104 36.088C138.856 36.472 139.448 36.976 139.88 37.6V35.704H143.264V49.096C143.264 50.328 143.016 51.424 142.52 52.384C142.024 53.36 141.28 54.128 140.288 54.688C139.296 55.264 138.096 55.552 136.688 55.552C134.8 55.552 133.248 55.112 132.032 54.232C130.832 53.352 130.152 52.152 129.992 50.632H133.328C133.504 51.24 133.88 51.72 134.456 52.072C135.048 52.44 135.76 52.624 136.592 52.624C137.568 52.624 138.36 52.328 138.968 51.736C139.576 51.16 139.88 50.28 139.88 49.096V47.032C139.448 47.656 138.848 48.176 138.08 48.592C137.328 49.008 136.464 49.216 135.488 49.216C134.368 49.216 133.344 48.928 132.416 48.352C131.488 47.776 130.752 46.968 130.208 45.928C129.68 44.872 129.416 43.664 129.416 42.304C129.416 40.96 129.68 39.768 130.208 38.728C130.752 37.688 131.48 36.888 132.392 36.328C133.32 35.768 134.352 35.488 135.488 35.488ZM139.88 42.352C139.88 41.536 139.72 40.84 139.4 40.264C139.08 39.672 138.648 39.224 138.104 38.92C137.56 38.6 136.976 38.44 136.352 38.44C135.728 38.44 135.152 38.592 134.624 38.896C134.096 39.2 133.664 39.648 133.328 40.24C133.008 40.816 132.848 41.504 132.848 42.304C132.848 43.104 133.008 43.808 133.328 44.416C133.664 45.008 134.096 45.464 134.624 45.784C135.168 46.104 135.744 46.264 136.352 46.264C136.976 46.264 137.56 46.112 138.104 45.808C138.648 45.488 139.08 45.04 139.4 44.464C139.72 43.872 139.88 43.168 139.88 42.352ZM145.682 42.304C145.682 40.96 145.946 39.768 146.474 38.728C147.018 37.688 147.746 36.888 148.658 36.328C149.586 35.768 150.618 35.488 151.754 35.488C152.746 35.488 153.61 35.688 154.346 36.088C155.098 36.488 155.698 36.992 156.146 37.6V35.704H159.53V49H156.146V47.056C155.714 47.68 155.114 48.2 154.346 48.616C153.594 49.016 152.722 49.216 151.73 49.216C150.61 49.216 149.586 48.928 148.658 48.352C147.746 47.776 147.018 46.968 146.474 45.928C145.946 44.872 145.682 43.664 145.682 42.304ZM156.146 42.352C156.146 41.536 155.986 40.84 155.666 40.264C155.346 39.672 154.914 39.224 154.37 38.92C153.826 38.6 153.242 38.44 152.618 38.44C151.994 38.44 151.418 38.592 150.89 38.896C150.362 39.2 149.93 39.648 149.594 40.24C149.274 40.816 149.114 41.504 149.114 42.304C149.114 43.104 149.274 43.808 149.594 44.416C149.93 45.008 150.362 45.464 150.89 45.784C151.434 46.104 152.01 46.264 152.618 46.264C153.242 46.264 153.826 46.112 154.37 45.808C154.914 45.488 155.346 45.04 155.666 44.464C155.986 43.872 156.146 43.168 156.146 42.352ZM161.947 42.304C161.947 40.96 162.211 39.768 162.739 38.728C163.283 37.688 164.019 36.888 164.947 36.328C165.875 35.768 166.907 35.488 168.043 35.488C168.907 35.488 169.731 35.68 170.515 36.064C171.299 36.432 171.923 36.928 172.387 37.552V31.24H175.795V49H172.387V47.032C171.971 47.688 171.387 48.216 170.635 48.616C169.883 49.016 169.011 49.216 168.019 49.216C166.899 49.216 165.875 48.928 164.947 48.352C164.019 47.776 163.283 46.968 162.739 45.928C162.211 44.872 161.947 43.664 161.947 42.304ZM172.411 42.352C172.411 41.536 172.251 40.84 171.931 40.264C171.611 39.672 171.179 39.224 170.635 38.92C170.091 38.6 169.507 38.44 168.883 38.44C168.259 38.44 167.683 38.592 167.155 38.896C166.627 39.2 166.195 39.648 165.859 40.24C165.539 40.816 165.379 41.504 165.379 42.304C165.379 43.104 165.539 43.808 165.859 44.416C166.195 45.008 166.627 45.464 167.155 45.784C167.699 46.104 168.275 46.264 168.883 46.264C169.507 46.264 170.091 46.112 170.635 45.808C171.179 45.488 171.611 45.04 171.931 44.464C172.251 43.872 172.411 43.168 172.411 42.352ZM184.285 35.488C185.277 35.488 186.149 35.688 186.901 36.088C187.653 36.472 188.245 36.976 188.677 37.6V35.704H192.061V49.096C192.061 50.328 191.813 51.424 191.317 52.384C190.821 53.36 190.077 54.128 189.085 54.688C188.093 55.264 186.893 55.552 185.485 55.552C183.597 55.552 182.045 55.112 180.829 54.232C179.629 53.352 178.949 52.152 178.789 50.632H182.125C182.301 51.24 182.677 51.72 183.253 52.072C183.845 52.44 184.557 52.624 185.389 52.624C186.365 52.624 187.157 52.328 187.765 51.736C188.373 51.16 188.677 50.28 188.677 49.096V47.032C188.245 47.656 187.645 48.176 186.877 48.592C186.125 49.008 185.261 49.216 184.285 49.216C183.165 49.216 182.141 48.928 181.213 48.352C180.285 47.776 179.549 46.968 179.005 45.928C178.477 44.872 178.213 43.664 178.213 42.304C178.213 40.96 178.477 39.768 179.005 38.728C179.549 37.688 180.277 36.888 181.189 36.328C182.117 35.768 183.149 35.488 184.285 35.488ZM188.677 42.352C188.677 41.536 188.517 40.84 188.197 40.264C187.877 39.672 187.445 39.224 186.901 38.92C186.357 38.6 185.773 38.44 185.149 38.44C184.525 38.44 183.949 38.592 183.421 38.896C182.893 39.2 182.461 39.648 182.125 40.24C181.805 40.816 181.645 41.504 181.645 42.304C181.645 43.104 181.805 43.808 182.125 44.416C182.461 45.008 182.893 45.464 183.421 45.784C183.965 46.104 184.541 46.264 185.149 46.264C185.773 46.264 186.357 46.112 186.901 45.808C187.445 45.488 187.877 45.04 188.197 44.464C188.517 43.872 188.677 43.168 188.677 42.352ZM207.703 42.064C207.703 42.544 207.671 42.976 207.607 43.36H197.887C197.967 44.32 198.303 45.072 198.895 45.616C199.487 46.16 200.215 46.432 201.079 46.432C202.327 46.432 203.215 45.896 203.743 44.824H207.367C206.983 46.104 206.247 47.16 205.159 47.992C204.071 48.808 202.735 49.216 201.151 49.216C199.871 49.216 198.719 48.936 197.695 48.376C196.687 47.8 195.895 46.992 195.319 45.952C194.759 44.912 194.479 43.712 194.479 42.352C194.479 40.976 194.759 39.768 195.319 38.728C195.879 37.688 196.663 36.888 197.671 36.328C198.679 35.768 199.839 35.488 201.151 35.488C202.415 35.488 203.543 35.76 204.535 36.304C205.543 36.848 206.319 37.624 206.863 38.632C207.423 39.624 207.703 40.768 207.703 42.064ZM204.223 41.104C204.207 40.24 203.895 39.552 203.287 39.04C202.679 38.512 201.935 38.248 201.055 38.248C200.223 38.248 199.519 38.504 198.943 39.016C198.383 39.512 198.039 40.208 197.911 41.104H204.223ZM214.067 38.464V44.896C214.067 45.344 214.171 45.672 214.379 45.88C214.603 46.072 214.971 46.168 215.483 46.168H217.043V49H214.931C212.099 49 210.683 47.624 210.683 44.872V38.464H209.099V35.704H210.683V32.416H214.067V35.704H217.043V38.464H214.067ZM224.548 49.216C223.46 49.216 222.484 49.024 221.62 48.64C220.756 48.24 220.068 47.704 219.556 47.032C219.06 46.36 218.788 45.616 218.74 44.8H222.124C222.188 45.312 222.436 45.736 222.868 46.072C223.316 46.408 223.868 46.576 224.524 46.576C225.164 46.576 225.66 46.448 226.012 46.192C226.38 45.936 226.564 45.608 226.564 45.208C226.564 44.776 226.34 44.456 225.892 44.248C225.46 44.024 224.764 43.784 223.804 43.528C222.812 43.288 221.996 43.04 221.356 42.784C220.732 42.528 220.188 42.136 219.724 41.608C219.276 41.08 219.052 40.368 219.052 39.472C219.052 38.736 219.26 38.064 219.676 37.456C220.108 36.848 220.716 36.368 221.5 36.016C222.3 35.664 223.236 35.488 224.308 35.488C225.892 35.488 227.156 35.888 228.1 36.688C229.044 37.472 229.564 38.536 229.66 39.88H226.444C226.396 39.352 226.172 38.936 225.772 38.632C225.388 38.312 224.868 38.152 224.212 38.152C223.604 38.152 223.132 38.264 222.796 38.488C222.476 38.712 222.316 39.024 222.316 39.424C222.316 39.872 222.54 40.216 222.988 40.456C223.436 40.68 224.132 40.912 225.076 41.152C226.036 41.392 226.828 41.64 227.452 41.896C228.076 42.152 228.612 42.552 229.06 43.096C229.524 43.624 229.764 44.328 229.78 45.208C229.78 45.976 229.564 46.664 229.132 47.272C228.716 47.88 228.108 48.36 227.308 48.712C226.524 49.048 225.604 49.216 224.548 49.216Z" fill="white"/>
<path d="M6.18346 6.80487C6.63146 6.88487 7.01146 7.12087 7.32346 7.51287C7.63546 7.90487 7.79146 8.34887 7.79146 8.84487C7.79146 9.26887 7.67946 9.65287 7.45546 9.99687C7.23946 10.3329 6.92346 10.6009 6.50746 10.8009C6.09146 10.9929 5.60746 11.0889 5.05546 11.0889H1.71946V2.74887H4.89946C5.46746 2.74887 5.95546 2.84487 6.36346 3.03687C6.77146 3.22887 7.07946 3.48887 7.28746 3.81687C7.49546 4.13687 7.59946 4.49687 7.59946 4.89687C7.59946 5.37687 7.47146 5.77687 7.21546 6.09687C6.95946 6.41687 6.61546 6.65287 6.18346 6.80487ZM3.08746 6.25287H4.77946C5.22746 6.25287 5.57546 6.15287 5.82346 5.95287C6.07946 5.74487 6.20746 5.44887 6.20746 5.06487C6.20746 4.68887 6.07946 4.39687 5.82346 4.18887C5.57546 3.97287 5.22746 3.86487 4.77946 3.86487H3.08746V6.25287ZM4.93546 9.97287C5.39946 9.97287 5.76346 9.86087 6.02746 9.63687C6.29146 9.41287 6.42346 9.10087 6.42346 8.70087C6.42346 8.29287 6.28346 7.96887 6.00346 7.72887C5.72346 7.48887 5.35146 7.36887 4.88746 7.36887H3.08746V9.97287H4.93546ZM15.3381 7.62087C15.3381 7.86887 15.3221 8.09287 15.2901 8.29287H10.2381C10.2781 8.82087 10.4741 9.24487 10.8261 9.56487C11.1781 9.88487 11.6101 10.0449 12.1221 10.0449C12.8581 10.0449 13.3781 9.73687 13.6821 9.12087H15.1581C14.9581 9.72887 14.5941 10.2289 14.0661 10.6209C13.5461 11.0049 12.8981 11.1969 12.1221 11.1969C11.4901 11.1969 10.9221 11.0569 10.4181 10.7769C9.92205 10.4889 9.53005 10.0889 9.24205 9.57687C8.96205 9.05687 8.82205 8.45687 8.82205 7.77687C8.82205 7.09687 8.95805 6.50087 9.23005 5.98887C9.51005 5.46887 9.89805 5.06887 10.3941 4.78887C10.8981 4.50887 11.4741 4.36887 12.1221 4.36887C12.7461 4.36887 13.3021 4.50487 13.7901 4.77687C14.2781 5.04887 14.6581 5.43287 14.9301 5.92887C15.2021 6.41687 15.3381 6.98087 15.3381 7.62087ZM13.9101 7.18887C13.9021 6.68487 13.7221 6.28087 13.3701 5.97687C13.0181 5.67287 12.5821 5.52087 12.0621 5.52087C11.5901 5.52087 11.1861 5.67287 10.8501 5.97687C10.5141 6.27287 10.3141 6.67687 10.2501 7.18887H13.9101ZM19.0843 11.1969C18.5643 11.1969 18.0963 11.1049 17.6803 10.9209C17.2723 10.7289 16.9483 10.4729 16.7083 10.1529C16.4683 9.82487 16.3403 9.46087 16.3243 9.06087H17.7403C17.7643 9.34087 17.8963 9.57687 18.1363 9.76887C18.3843 9.95287 18.6923 10.0449 19.0603 10.0449C19.4443 10.0449 19.7403 9.97287 19.9483 9.82887C20.1643 9.67687 20.2723 9.48487 20.2723 9.25287C20.2723 9.00487 20.1523 8.82087 19.9123 8.70087C19.6803 8.58087 19.3083 8.44887 18.7963 8.30487C18.3003 8.16887 17.8963 8.03687 17.5843 7.90887C17.2723 7.78087 17.0003 7.58487 16.7683 7.32087C16.5443 7.05687 16.4323 6.70887 16.4323 6.27687C16.4323 5.92487 16.5363 5.60487 16.7443 5.31687C16.9523 5.02087 17.2483 4.78887 17.6323 4.62087C18.0243 4.45287 18.4723 4.36887 18.9763 4.36887C19.7283 4.36887 20.3323 4.56087 20.7883 4.94487C21.2523 5.32087 21.5003 5.83687 21.5323 6.49287H20.1643C20.1403 6.19687 20.0203 5.96087 19.8043 5.78487C19.5883 5.60887 19.2963 5.52087 18.9283 5.52087C18.5683 5.52087 18.2923 5.58887 18.1003 5.72487C17.9083 5.86087 17.8123 6.04087 17.8123 6.26487C17.8123 6.44087 17.8763 6.58887 18.0043 6.70887C18.1323 6.82887 18.2883 6.92487 18.4723 6.99687C18.6563 7.06087 18.9283 7.14487 19.2883 7.24887C19.7683 7.37687 20.1603 7.50887 20.4643 7.64487C20.7763 7.77287 21.0443 7.96487 21.2683 8.22087C21.4923 8.47687 21.6083 8.81687 21.6163 9.24087C21.6163 9.61687 21.5123 9.95287 21.3043 10.2489C21.0963 10.5449 20.8003 10.7769 20.4163 10.9449C20.0403 11.1129 19.5963 11.1969 19.0843 11.1969ZM24.6905 5.59287V9.25287C24.6905 9.50087 24.7465 9.68087 24.8585 9.79287C24.9785 9.89687 25.1785 9.94887 25.4585 9.94887H26.2985V11.0889H25.2185C24.6025 11.0889 24.1305 10.9449 23.8025 10.6569C23.4745 10.3689 23.3105 9.90087 23.3105 9.25287V5.59287H22.5305V4.47687H23.3105V2.83287H24.6905V4.47687H26.2985V5.59287H24.6905ZM33.4005 2.74887C34.2885 2.74887 35.0645 2.92087 35.7285 3.26487C36.4005 3.60087 36.9165 4.08887 37.2765 4.72887C37.6445 5.36087 37.8285 6.10087 37.8285 6.94887C37.8285 7.79687 37.6445 8.53287 37.2765 9.15687C36.9165 9.78087 36.4005 10.2609 35.7285 10.5969C35.0645 10.9249 34.2885 11.0889 33.4005 11.0889H30.6765V2.74887H33.4005ZM33.4005 9.97287C34.3765 9.97287 35.1245 9.70887 35.6445 9.18087C36.1645 8.65287 36.4245 7.90887 36.4245 6.94887C36.4245 5.98087 36.1645 5.22487 35.6445 4.68087C35.1245 4.13687 34.3765 3.86487 33.4005 3.86487H32.0445V9.97287H33.4005ZM45.2443 7.62087C45.2443 7.86887 45.2283 8.09287 45.1963 8.29287H40.1443C40.1843 8.82087 40.3803 9.24487 40.7323 9.56487C41.0843 9.88487 41.5163 10.0449 42.0283 10.0449C42.7643 10.0449 43.2843 9.73687 43.5883 9.12087H45.0643C44.8643 9.72887 44.5003 10.2289 43.9723 10.6209C43.4523 11.0049 42.8043 11.1969 42.0283 11.1969C41.3963 11.1969 40.8283 11.0569 40.3243 10.7769C39.8283 10.4889 39.4363 10.0889 39.1483 9.57687C38.8683 9.05687 38.7283 8.45687 38.7283 7.77687C38.7283 7.09687 38.8643 6.50087 39.1363 5.98887C39.4163 5.46887 39.8043 5.06887 40.3003 4.78887C40.8043 4.50887 41.3803 4.36887 42.0283 4.36887C42.6523 4.36887 43.2083 4.50487 43.6963 4.77687C44.1843 5.04887 44.5643 5.43287 44.8363 5.92887C45.1083 6.41687 45.2443 6.98087 45.2443 7.62087ZM43.8163 7.18887C43.8083 6.68487 43.6283 6.28087 43.2763 5.97687C42.9243 5.67287 42.4883 5.52087 41.9683 5.52087C41.4963 5.52087 41.0923 5.67287 40.7563 5.97687C40.4203 6.27287 40.2203 6.67687 40.1563 7.18887H43.8163ZM46.1346 7.75287C46.1346 7.08887 46.2706 6.50087 46.5426 5.98887C46.8226 5.47687 47.1986 5.08087 47.6706 4.80087C48.1506 4.51287 48.6786 4.36887 49.2546 4.36887C49.7746 4.36887 50.2266 4.47287 50.6106 4.68087C51.0026 4.88087 51.3146 5.13287 51.5466 5.43687V4.47687H52.9266V11.0889H51.5466V10.1049C51.3146 10.4169 50.9986 10.6769 50.5986 10.8849C50.1986 11.0929 49.7426 11.1969 49.2306 11.1969C48.6626 11.1969 48.1426 11.0529 47.6706 10.7649C47.1986 10.4689 46.8226 10.0609 46.5426 9.54087C46.2706 9.01287 46.1346 8.41687 46.1346 7.75287ZM51.5466 7.77687C51.5466 7.32087 51.4506 6.92487 51.2586 6.58887C51.0746 6.25287 50.8306 5.99687 50.5266 5.82087C50.2226 5.64487 49.8946 5.55687 49.5426 5.55687C49.1906 5.55687 48.8626 5.64487 48.5586 5.82087C48.2546 5.98887 48.0066 6.24087 47.8146 6.57687C47.6306 6.90487 47.5386 7.29687 47.5386 7.75287C47.5386 8.20887 47.6306 8.60887 47.8146 8.95287C48.0066 9.29687 48.2546 9.56087 48.5586 9.74487C48.8706 9.92087 49.1986 10.0089 49.5426 10.0089C49.8946 10.0089 50.2226 9.92087 50.5266 9.74487C50.8306 9.56887 51.0746 9.31287 51.2586 8.97687C51.4506 8.63287 51.5466 8.23287 51.5466 7.77687ZM56.0914 2.20887V11.0889H54.7234V2.20887H56.0914ZM64.8086 11.1729C64.0326 11.1729 63.3166 10.9929 62.6606 10.6329C62.0126 10.2649 61.4966 9.75687 61.1126 9.10887C60.7366 8.45287 60.5486 7.71687 60.5486 6.90087C60.5486 6.08487 60.7366 5.35287 61.1126 4.70487C61.4966 4.05687 62.0126 3.55287 62.6606 3.19287C63.3166 2.82487 64.0326 2.64087 64.8086 2.64087C65.5926 2.64087 66.3086 2.82487 66.9566 3.19287C67.6126 3.55287 68.1286 4.05687 68.5046 4.70487C68.8806 5.35287 69.0686 6.08487 69.0686 6.90087C69.0686 7.71687 68.8806 8.45287 68.5046 9.10887C68.1286 9.75687 67.6126 10.2649 66.9566 10.6329C66.3086 10.9929 65.5926 11.1729 64.8086 11.1729ZM64.8086 9.98487C65.3606 9.98487 65.8526 9.86087 66.2846 9.61287C66.7166 9.35687 67.0526 8.99687 67.2926 8.53287C67.5406 8.06087 67.6646 7.51687 67.6646 6.90087C67.6646 6.28487 67.5406 5.74487 67.2926 5.28087C67.0526 4.81687 66.7166 4.46087 66.2846 4.21287C65.8526 3.96487 65.3606 3.84087 64.8086 3.84087C64.2566 3.84087 63.7646 3.96487 63.3326 4.21287C62.9006 4.46087 62.5606 4.81687 62.3126 5.28087C62.0726 5.74487 61.9526 6.28487 61.9526 6.90087C61.9526 7.51687 62.0726 8.06087 62.3126 8.53287C62.5606 8.99687 62.9006 9.35687 63.3326 9.61287C63.7646 9.86087 64.2566 9.98487 64.8086 9.98487ZM73.7508 4.36887C74.2708 4.36887 74.7348 4.47687 75.1428 4.69287C75.5588 4.90887 75.8828 5.22887 76.1148 5.65287C76.3468 6.07687 76.4628 6.58887 76.4628 7.18887V11.0889H75.1068V7.39287C75.1068 6.80087 74.9588 6.34887 74.6628 6.03687C74.3668 5.71687 73.9628 5.55687 73.4508 5.55687C72.9388 5.55687 72.5308 5.71687 72.2268 6.03687C71.9308 6.34887 71.7828 6.80087 71.7828 7.39287V11.0889H70.4148V4.47687H71.7828V5.23287C72.0068 4.96087 72.2908 4.74887 72.6348 4.59687C72.9868 4.44487 73.3588 4.36887 73.7508 4.36887ZM79.5757 2.20887V11.0889H78.2077V2.20887H79.5757ZM82.0678 3.60087C81.8198 3.60087 81.6118 3.51687 81.4438 3.34887C81.2758 3.18087 81.1918 2.97287 81.1918 2.72487C81.1918 2.47687 81.2758 2.26887 81.4438 2.10087C81.6118 1.93287 81.8198 1.84887 82.0678 1.84887C82.3078 1.84887 82.5118 1.93287 82.6798 2.10087C82.8478 2.26887 82.9318 2.47687 82.9318 2.72487C82.9318 2.97287 82.8478 3.18087 82.6798 3.34887C82.5118 3.51687 82.3078 3.60087 82.0678 3.60087ZM82.7398 4.47687V11.0889H81.3718V4.47687H82.7398ZM87.8719 4.36887C88.3919 4.36887 88.8559 4.47687 89.2639 4.69287C89.6799 4.90887 90.0039 5.22887 90.2359 5.65287C90.4679 6.07687 90.5839 6.58887 90.5839 7.18887V11.0889H89.2279V7.39287C89.2279 6.80087 89.0799 6.34887 88.7839 6.03687C88.4879 5.71687 88.0839 5.55687 87.5719 5.55687C87.0599 5.55687 86.6519 5.71687 86.3479 6.03687C86.0519 6.34887 85.9039 6.80087 85.9039 7.39287V11.0889H84.5359V4.47687H85.9039V5.23287C86.1279 4.96087 86.4119 4.74887 86.7559 4.59687C87.1079 4.44487 87.4799 4.36887 87.8719 4.36887ZM98.3888 7.62087C98.3888 7.86887 98.3728 8.09287 98.3408 8.29287H93.2888C93.3288 8.82087 93.5248 9.24487 93.8768 9.56487C94.2288 9.88487 94.6608 10.0449 95.1728 10.0449C95.9088 10.0449 96.4288 9.73687 96.7328 9.12087H98.2088C98.0088 9.72887 97.6448 10.2289 97.1168 10.6209C96.5968 11.0049 95.9488 11.1969 95.1728 11.1969C94.5408 11.1969 93.9728 11.0569 93.4688 10.7769C92.9728 10.4889 92.5808 10.0889 92.2928 9.57687C92.0128 9.05687 91.8728 8.45687 91.8728 7.77687C91.8728 7.09687 92.0088 6.50087 92.2808 5.98887C92.5608 5.46887 92.9488 5.06887 93.4448 4.78887C93.9488 4.50887 94.5248 4.36887 95.1728 4.36887C95.7968 4.36887 96.3528 4.50487 96.8408 4.77687C97.3288 5.04887 97.7088 5.43287 97.9808 5.92887C98.2528 6.41687 98.3888 6.98087 98.3888 7.62087ZM96.9608 7.18887C96.9528 6.68487 96.7728 6.28087 96.4208 5.97687C96.0688 5.67287 95.6328 5.52087 95.1128 5.52087C94.6408 5.52087 94.2368 5.67287 93.9008 5.97687C93.5648 6.27287 93.3648 6.67687 93.3008 7.18887H96.9608ZM105.72 11.1969C105.096 11.1969 104.532 11.0569 104.028 10.7769C103.524 10.4889 103.128 10.0889 102.84 9.57687C102.552 9.05687 102.408 8.45687 102.408 7.77687C102.408 7.10487 102.556 6.50887 102.852 5.98887C103.148 5.46887 103.552 5.06887 104.064 4.78887C104.576 4.50887 105.148 4.36887 105.78 4.36887C106.412 4.36887 106.984 4.50887 107.496 4.78887C108.008 5.06887 108.412 5.46887 108.708 5.98887C109.004 6.50887 109.152 7.10487 109.152 7.77687C109.152 8.44887 109 9.04487 108.696 9.56487C108.392 10.0849 107.976 10.4889 107.448 10.7769C106.928 11.0569 106.352 11.1969 105.72 11.1969ZM105.72 10.0089C106.072 10.0089 106.4 9.92487 106.704 9.75687C107.016 9.58887 107.268 9.33687 107.46 9.00087C107.652 8.66487 107.748 8.25687 107.748 7.77687C107.748 7.29687 107.656 6.89287 107.472 6.56487C107.288 6.22887 107.044 5.97687 106.74 5.80887C106.436 5.64087 106.108 5.55687 105.756 5.55687C105.404 5.55687 105.076 5.64087 104.772 5.80887C104.476 5.97687 104.24 6.22887 104.064 6.56487C103.888 6.89287 103.8 7.29687 103.8 7.77687C103.8 8.48887 103.98 9.04087 104.34 9.43287C104.708 9.81687 105.168 10.0089 105.72 10.0089ZM113.841 4.36887C114.361 4.36887 114.825 4.47687 115.233 4.69287C115.649 4.90887 115.973 5.22887 116.205 5.65287C116.437 6.07687 116.553 6.58887 116.553 7.18887V11.0889H115.197V7.39287C115.197 6.80087 115.049 6.34887 114.753 6.03687C114.457 5.71687 114.053 5.55687 113.541 5.55687C113.029 5.55687 112.621 5.71687 112.317 6.03687C112.021 6.34887 111.873 6.80087 111.873 7.39287V11.0889H110.505V4.47687H111.873V5.23287C112.097 4.96087 112.381 4.74887 112.725 4.59687C113.077 4.44487 113.449 4.36887 113.841 4.36887ZM127.475 7.62087C127.475 7.86887 127.459 8.09287 127.427 8.29287H122.375C122.415 8.82087 122.611 9.24487 122.963 9.56487C123.315 9.88487 123.747 10.0449 124.259 10.0449C124.995 10.0449 125.515 9.73687 125.819 9.12087H127.295C127.095 9.72887 126.731 10.2289 126.203 10.6209C125.683 11.0049 125.035 11.1969 124.259 11.1969C123.627 11.1969 123.059 11.0569 122.555 10.7769C122.059 10.4889 121.667 10.0889 121.379 9.57687C121.099 9.05687 120.959 8.45687 120.959 7.77687C120.959 7.09687 121.095 6.50087 121.367 5.98887C121.647 5.46887 122.035 5.06887 122.531 4.78887C123.035 4.50887 123.611 4.36887 124.259 4.36887C124.883 4.36887 125.439 4.50487 125.927 4.77687C126.415 5.04887 126.795 5.43287 127.067 5.92887C127.339 6.41687 127.475 6.98087 127.475 7.62087ZM126.047 7.18887C126.039 6.68487 125.859 6.28087 125.507 5.97687C125.155 5.67287 124.719 5.52087 124.199 5.52087C123.727 5.52087 123.323 5.67287 122.987 5.97687C122.651 6.27287 122.451 6.67687 122.387 7.18887H126.047ZM130.189 2.20887V11.0889H128.821V2.20887H130.189ZM138.045 7.62087C138.045 7.86887 138.029 8.09287 137.997 8.29287H132.945C132.985 8.82087 133.181 9.24487 133.533 9.56487C133.885 9.88487 134.317 10.0449 134.829 10.0449C135.565 10.0449 136.085 9.73687 136.389 9.12087H137.865C137.665 9.72887 137.301 10.2289 136.773 10.6209C136.253 11.0049 135.605 11.1969 134.829 11.1969C134.197 11.1969 133.629 11.0569 133.125 10.7769C132.629 10.4889 132.237 10.0889 131.949 9.57687C131.669 9.05687 131.529 8.45687 131.529 7.77687C131.529 7.09687 131.665 6.50087 131.937 5.98887C132.217 5.46887 132.605 5.06887 133.101 4.78887C133.605 4.50887 134.181 4.36887 134.829 4.36887C135.453 4.36887 136.009 4.50487 136.497 4.77687C136.985 5.04887 137.365 5.43287 137.637 5.92887C137.909 6.41687 138.045 6.98087 138.045 7.62087ZM136.617 7.18887C136.609 6.68487 136.429 6.28087 136.077 5.97687C135.725 5.67287 135.289 5.52087 134.769 5.52087C134.297 5.52087 133.893 5.67287 133.557 5.97687C133.221 6.27287 133.021 6.67687 132.957 7.18887H136.617ZM138.935 7.77687C138.935 7.09687 139.071 6.50087 139.343 5.98887C139.623 5.46887 140.007 5.06887 140.495 4.78887C140.983 4.50887 141.543 4.36887 142.175 4.36887C142.975 4.36887 143.635 4.56087 144.155 4.94487C144.683 5.32087 145.039 5.86087 145.223 6.56487H143.747C143.627 6.23687 143.435 5.98087 143.171 5.79687C142.907 5.61287 142.575 5.52087 142.175 5.52087C141.615 5.52087 141.167 5.72087 140.831 6.12087C140.503 6.51287 140.339 7.06487 140.339 7.77687C140.339 8.48887 140.503 9.04487 140.831 9.44487C141.167 9.84487 141.615 10.0449 142.175 10.0449C142.967 10.0449 143.491 9.69687 143.747 9.00087H145.223C145.031 9.67287 144.671 10.2089 144.143 10.6089C143.615 11.0009 142.959 11.1969 142.175 11.1969C141.543 11.1969 140.983 11.0569 140.495 10.7769C140.007 10.4889 139.623 10.0889 139.343 9.57687C139.071 9.05687 138.935 8.45687 138.935 7.77687ZM148.183 5.59287V9.25287C148.183 9.50087 148.239 9.68087 148.351 9.79287C148.471 9.89687 148.671 9.94887 148.951 9.94887H149.791V11.0889H148.711C148.095 11.0889 147.623 10.9449 147.295 10.6569C146.967 10.3689 146.803 9.90087 146.803 9.25287V5.59287H146.023V4.47687H146.803V2.83287H148.183V4.47687H149.791V5.59287H148.183ZM152.419 5.43687C152.619 5.10087 152.883 4.84087 153.211 4.65687C153.547 4.46487 153.943 4.36887 154.399 4.36887V5.78487H154.051C153.515 5.78487 153.107 5.92087 152.827 6.19287C152.555 6.46487 152.419 6.93687 152.419 7.60887V11.0889H151.051V4.47687H152.419V5.43687ZM158.525 11.1969C157.901 11.1969 157.337 11.0569 156.833 10.7769C156.329 10.4889 155.933 10.0889 155.645 9.57687C155.357 9.05687 155.213 8.45687 155.213 7.77687C155.213 7.10487 155.361 6.50887 155.657 5.98887C155.953 5.46887 156.357 5.06887 156.869 4.78887C157.381 4.50887 157.953 4.36887 158.585 4.36887C159.217 4.36887 159.789 4.50887 160.301 4.78887C160.813 5.06887 161.217 5.46887 161.513 5.98887C161.809 6.50887 161.957 7.10487 161.957 7.77687C161.957 8.44887 161.805 9.04487 161.501 9.56487C161.197 10.0849 160.781 10.4889 160.253 10.7769C159.733 11.0569 159.157 11.1969 158.525 11.1969ZM158.525 10.0089C158.877 10.0089 159.205 9.92487 159.509 9.75687C159.821 9.58887 160.073 9.33687 160.265 9.00087C160.457 8.66487 160.553 8.25687 160.553 7.77687C160.553 7.29687 160.461 6.89287 160.277 6.56487C160.093 6.22887 159.849 5.97687 159.545 5.80887C159.241 5.64087 158.913 5.55687 158.561 5.55687C158.209 5.55687 157.881 5.64087 157.577 5.80887C157.281 5.97687 157.045 6.22887 156.869 6.56487C156.693 6.89287 156.605 7.29687 156.605 7.77687C156.605 8.48887 156.785 9.04087 157.145 9.43287C157.513 9.81687 157.973 10.0089 158.525 10.0089ZM166.645 4.36887C167.165 4.36887 167.629 4.47687 168.037 4.69287C168.453 4.90887 168.777 5.22887 169.009 5.65287C169.241 6.07687 169.357 6.58887 169.357 7.18887V11.0889H168.001V7.39287C168.001 6.80087 167.853 6.34887 167.557 6.03687C167.261 5.71687 166.857 5.55687 166.345 5.55687C165.833 5.55687 165.425 5.71687 165.121 6.03687C164.825 6.34887 164.677 6.80087 164.677 7.39287V11.0889H163.309V4.47687H164.677V5.23287C164.901 4.96087 165.185 4.74887 165.529 4.59687C165.881 4.44487 166.253 4.36887 166.645 4.36887ZM171.798 3.60087C171.55 3.60087 171.342 3.51687 171.174 3.34887C171.006 3.18087 170.922 2.97287 170.922 2.72487C170.922 2.47687 171.006 2.26887 171.174 2.10087C171.342 1.93287 171.55 1.84887 171.798 1.84887C172.038 1.84887 172.242 1.93287 172.41 2.10087C172.578 2.26887 172.662 2.47687 172.662 2.72487C172.662 2.97287 172.578 3.18087 172.41 3.34887C172.242 3.51687 172.038 3.60087 171.798 3.60087ZM172.47 4.47687V11.0889H171.102V4.47687H172.47ZM173.81 7.77687C173.81 7.09687 173.946 6.50087 174.218 5.98887C174.498 5.46887 174.882 5.06887 175.37 4.78887C175.858 4.50887 176.418 4.36887 177.05 4.36887C177.85 4.36887 178.51 4.56087 179.03 4.94487C179.558 5.32087 179.914 5.86087 180.098 6.56487H178.622C178.502 6.23687 178.31 5.98087 178.046 5.79687C177.782 5.61287 177.45 5.52087 177.05 5.52087C176.49 5.52087 176.042 5.72087 175.706 6.12087C175.378 6.51287 175.214 7.06487 175.214 7.77687C175.214 8.48887 175.378 9.04487 175.706 9.44487C176.042 9.84487 176.49 10.0449 177.05 10.0449C177.842 10.0449 178.366 9.69687 178.622 9.00087H180.098C179.906 9.67287 179.546 10.2089 179.018 10.6089C178.49 11.0009 177.834 11.1969 177.05 11.1969C176.418 11.1969 175.858 11.0569 175.37 10.7769C174.882 10.4889 174.498 10.0889 174.218 9.57687C173.946 9.05687 173.81 8.45687 173.81 7.77687ZM183.862 11.1969C183.342 11.1969 182.874 11.1049 182.458 10.9209C182.05 10.7289 181.726 10.4729 181.486 10.1529C181.246 9.82487 181.118 9.46087 181.102 9.06087H182.518C182.542 9.34087 182.674 9.57687 182.914 9.76887C183.162 9.95287 183.47 10.0449 183.838 10.0449C184.222 10.0449 184.518 9.97287 184.726 9.82887C184.942 9.67687 185.05 9.48487 185.05 9.25287C185.05 9.00487 184.93 8.82087 184.69 8.70087C184.458 8.58087 184.086 8.44887 183.574 8.30487C183.078 8.16887 182.674 8.03687 182.362 7.90887C182.05 7.78087 181.778 7.58487 181.546 7.32087C181.322 7.05687 181.21 6.70887 181.21 6.27687C181.21 5.92487 181.314 5.60487 181.522 5.31687C181.73 5.02087 182.026 4.78887 182.41 4.62087C182.802 4.45287 183.25 4.36887 183.754 4.36887C184.506 4.36887 185.11 4.56087 185.566 4.94487C186.03 5.32087 186.278 5.83687 186.31 6.49287H184.942C184.918 6.19687 184.798 5.96087 184.582 5.78487C184.366 5.60887 184.074 5.52087 183.706 5.52087C183.346 5.52087 183.07 5.58887 182.878 5.72487C182.686 5.86087 182.59 6.04087 182.59 6.26487C182.59 6.44087 182.654 6.58887 182.782 6.70887C182.91 6.82887 183.066 6.92487 183.25 6.99687C183.434 7.06087 183.706 7.14487 184.066 7.24887C184.546 7.37687 184.938 7.50887 185.242 7.64487C185.554 7.77287 185.822 7.96487 186.046 8.22087C186.27 8.47687 186.386 8.81687 186.394 9.24087C186.394 9.61687 186.29 9.95287 186.082 10.2489C185.874 10.5449 185.578 10.7769 185.194 10.9449C184.818 11.1129 184.374 11.1969 183.862 11.1969Z" fill="white"/>
<path d="M3.45146 70.27V76.472C3.45146 77.2093 3.64279 77.7647 4.02546 78.138C4.41746 78.5113 4.95879 78.698 5.64946 78.698C6.34946 78.698 6.89079 78.5113 7.27346 78.138C7.66546 77.7647 7.86146 77.2093 7.86146 76.472V70.27H9.45746V76.444C9.45746 77.2373 9.28479 77.9093 8.93946 78.46C8.59413 79.0107 8.13213 79.4213 7.55346 79.692C6.97479 79.9627 6.33546 80.098 5.63546 80.098C4.93546 80.098 4.29612 79.9627 3.71746 79.692C3.14812 79.4213 2.69546 79.0107 2.35946 78.46C2.02346 77.9093 1.85546 77.2373 1.85546 76.444V70.27H3.45146ZM18.3395 73.168C18.3395 73.6627 18.2228 74.1293 17.9895 74.568C17.7561 75.0067 17.3828 75.366 16.8695 75.646C16.3561 75.9167 15.6981 76.052 14.8955 76.052H13.1315V80H11.5355V70.27H14.8955C15.6421 70.27 16.2721 70.4007 16.7855 70.662C17.3081 70.914 17.6955 71.2593 17.9475 71.698C18.2088 72.1367 18.3395 72.6267 18.3395 73.168ZM14.8955 74.75C15.5021 74.75 15.9548 74.6147 16.2535 74.344C16.5521 74.064 16.7015 73.672 16.7015 73.168C16.7015 72.104 16.0995 71.572 14.8955 71.572H13.1315V74.75H14.8955ZM25.3604 73.588V77.858C25.3604 78.1473 25.4257 78.3573 25.5564 78.488C25.6964 78.6093 25.9297 78.67 26.2564 78.67H27.2364V80H25.9764C25.2577 80 24.707 79.832 24.3244 79.496C23.9417 79.16 23.7504 78.614 23.7504 77.858V73.588H22.8404V72.286H23.7504V70.368H25.3604V72.286H27.2364V73.588H25.3604ZM32.0533 80.126C31.3253 80.126 30.6673 79.9627 30.0793 79.636C29.4913 79.3 29.0293 78.8333 28.6933 78.236C28.3573 77.6293 28.1893 76.9293 28.1893 76.136C28.1893 75.352 28.362 74.6567 28.7073 74.05C29.0527 73.4433 29.524 72.9767 30.1213 72.65C30.7187 72.3233 31.386 72.16 32.1233 72.16C32.8607 72.16 33.528 72.3233 34.1253 72.65C34.7227 72.9767 35.194 73.4433 35.5393 74.05C35.8847 74.6567 36.0573 75.352 36.0573 76.136C36.0573 76.92 35.88 77.6153 35.5253 78.222C35.1707 78.8287 34.6853 79.3 34.0693 79.636C33.4627 79.9627 32.7907 80.126 32.0533 80.126ZM32.0533 78.74C32.464 78.74 32.8467 78.642 33.2013 78.446C33.5653 78.25 33.8593 77.956 34.0833 77.564C34.3073 77.172 34.4193 76.696 34.4193 76.136C34.4193 75.576 34.312 75.1047 34.0973 74.722C33.8827 74.33 33.598 74.036 33.2433 73.84C32.8887 73.644 32.506 73.546 32.0953 73.546C31.6847 73.546 31.302 73.644 30.9473 73.84C30.602 74.036 30.3267 74.33 30.1213 74.722C29.916 75.1047 29.8133 75.576 29.8133 76.136C29.8133 76.9667 30.0233 77.6107 30.4433 78.068C30.8727 78.516 31.4093 78.74 32.0533 78.74ZM42.7838 74.666C41.8131 74.1807 41.3278 73.4153 41.3278 72.37C41.3278 71.866 41.4538 71.404 41.7058 70.984C41.9578 70.564 42.3358 70.2327 42.8398 69.99C43.3438 69.738 43.9598 69.612 44.6878 69.612C45.4065 69.612 46.0178 69.738 46.5218 69.99C47.0351 70.2327 47.4178 70.564 47.6698 70.984C47.9218 71.404 48.0478 71.866 48.0478 72.37C48.0478 72.8927 47.9125 73.3547 47.6418 73.756C47.3805 74.148 47.0305 74.4513 46.5918 74.666C47.1238 74.862 47.5438 75.184 47.8518 75.632C48.1598 76.0707 48.3138 76.5887 48.3138 77.186C48.3138 77.7927 48.1598 78.3293 47.8518 78.796C47.5438 79.2627 47.1145 79.622 46.5638 79.874C46.0131 80.126 45.3878 80.252 44.6878 80.252C43.9878 80.252 43.3625 80.126 42.8118 79.874C42.2705 79.622 41.8458 79.2627 41.5378 78.796C41.2298 78.3293 41.0758 77.7927 41.0758 77.186C41.0758 76.5793 41.2298 76.0567 41.5378 75.618C41.8458 75.1793 42.2611 74.862 42.7838 74.666ZM46.5218 72.566C46.5218 72.0433 46.3585 71.642 46.0318 71.362C45.7051 71.082 45.2571 70.942 44.6878 70.942C44.1278 70.942 43.6845 71.082 43.3578 71.362C43.0311 71.642 42.8678 72.048 42.8678 72.58C42.8678 73.0467 43.0358 73.4293 43.3718 73.728C43.7171 74.0173 44.1558 74.162 44.6878 74.162C45.2198 74.162 45.6585 74.0127 46.0038 73.714C46.3491 73.4153 46.5218 73.0327 46.5218 72.566ZM44.6878 75.366C44.0718 75.366 43.5678 75.52 43.1758 75.828C42.7931 76.1267 42.6018 76.5607 42.6018 77.13C42.6018 77.662 42.7885 78.096 43.1618 78.432C43.5351 78.7587 44.0438 78.922 44.6878 78.922C45.3225 78.922 45.8218 78.754 46.1858 78.418C46.5591 78.082 46.7458 77.6527 46.7458 77.13C46.7458 76.57 46.5545 76.136 46.1718 75.828C45.7985 75.52 45.3038 75.366 44.6878 75.366ZM49.9895 74.764C49.9895 73.1493 50.2602 71.8893 50.8015 70.984C51.3522 70.0693 52.2949 69.612 53.6295 69.612C54.9642 69.612 55.9022 70.0693 56.4435 70.984C56.9942 71.8893 57.2695 73.1493 57.2695 74.764C57.2695 76.3973 56.9942 77.676 56.4435 78.6C55.9022 79.5147 54.9642 79.972 53.6295 79.972C52.2949 79.972 51.3522 79.5147 50.8015 78.6C50.2602 77.676 49.9895 76.3973 49.9895 74.764ZM55.7015 74.764C55.7015 74.008 55.6502 73.3687 55.5475 72.846C55.4542 72.3233 55.2582 71.8987 54.9595 71.572C54.6609 71.236 54.2175 71.068 53.6295 71.068C53.0415 71.068 52.5982 71.236 52.2995 71.572C52.0009 71.8987 51.8002 72.3233 51.6975 72.846C51.6042 73.3687 51.5575 74.008 51.5575 74.764C51.5575 75.548 51.6042 76.206 51.6975 76.738C51.7909 77.27 51.9869 77.6993 52.2855 78.026C52.5935 78.3527 53.0415 78.516 53.6295 78.516C54.2175 78.516 54.6609 78.3527 54.9595 78.026C55.2675 77.6993 55.4682 77.27 55.5615 76.738C55.6549 76.206 55.7015 75.548 55.7015 74.764ZM58.7063 72.258C58.7063 71.5767 58.9023 71.0447 59.2943 70.662C59.6956 70.27 60.209 70.074 60.8343 70.074C61.4596 70.074 61.9683 70.27 62.3603 70.662C62.7616 71.0447 62.9623 71.5767 62.9623 72.258C62.9623 72.9393 62.7616 73.476 62.3603 73.868C61.9683 74.26 61.4596 74.456 60.8343 74.456C60.209 74.456 59.6956 74.26 59.2943 73.868C58.9023 73.476 58.7063 72.9393 58.7063 72.258ZM67.2463 70.256L61.6603 80H60.0923L65.6783 70.256H67.2463ZM60.8343 71.04C60.2463 71.04 59.9523 71.446 59.9523 72.258C59.9523 73.0793 60.2463 73.49 60.8343 73.49C61.1143 73.49 61.329 73.392 61.4783 73.196C61.637 72.9907 61.7163 72.678 61.7163 72.258C61.7163 71.446 61.4223 71.04 60.8343 71.04ZM64.4043 77.984C64.4043 77.3027 64.6003 76.7707 64.9923 76.388C65.3936 75.996 65.907 75.8 66.5323 75.8C67.1483 75.8 67.6523 75.996 68.0443 76.388C68.4456 76.7707 68.6463 77.3027 68.6463 77.984C68.6463 78.6653 68.4456 79.202 68.0443 79.594C67.6523 79.986 67.1483 80.182 66.5323 80.182C65.907 80.182 65.3936 79.986 64.9923 79.594C64.6003 79.202 64.4043 78.6653 64.4043 77.984ZM66.5183 76.766C65.9303 76.766 65.6363 77.172 65.6363 77.984C65.6363 78.796 65.9303 79.202 66.5183 79.202C67.1063 79.202 67.4003 78.796 67.4003 77.984C67.4003 77.172 67.1063 76.766 66.5183 76.766ZM78.3582 80.098C77.4529 80.098 76.6176 79.888 75.8522 79.468C75.0962 79.0387 74.4942 78.446 74.0462 77.69C73.6076 76.9247 73.3882 76.066 73.3882 75.114C73.3882 74.162 73.6076 73.308 74.0462 72.552C74.4942 71.796 75.0962 71.208 75.8522 70.788C76.6176 70.3587 77.4529 70.144 78.3582 70.144C79.2729 70.144 80.1082 70.3587 80.8642 70.788C81.6296 71.208 82.2316 71.796 82.6702 72.552C83.1089 73.308 83.3282 74.162 83.3282 75.114C83.3282 76.066 83.1089 76.9247 82.6702 77.69C82.2316 78.446 81.6296 79.0387 80.8642 79.468C80.1082 79.888 79.2729 80.098 78.3582 80.098ZM78.3582 78.712C79.0022 78.712 79.5762 78.5673 80.0802 78.278C80.5842 77.9793 80.9762 77.5593 81.2562 77.018C81.5456 76.4673 81.6902 75.8327 81.6902 75.114C81.6902 74.3953 81.5456 73.7653 81.2562 73.224C80.9762 72.6827 80.5842 72.2673 80.0802 71.978C79.5762 71.6887 79.0022 71.544 78.3582 71.544C77.7142 71.544 77.1402 71.6887 76.6362 71.978C76.1322 72.2673 75.7356 72.6827 75.4462 73.224C75.1662 73.7653 75.0262 74.3953 75.0262 75.114C75.0262 75.8327 75.1662 76.4673 75.4462 77.018C75.7356 77.5593 76.1322 77.9793 76.6362 78.278C77.1402 78.5673 77.7142 78.712 78.3582 78.712ZM90.6248 70.27V71.572H86.4948V74.442H89.7148V75.744H86.4948V80H84.8988V70.27H90.6248ZM97.8298 70.27V71.572H93.6998V74.442H96.9198V75.744H93.6998V80H92.1038V70.27H97.8298Z" fill="white"/>
</svg>
