<svg width="23" height="23" viewBox="0 0 23 23" fill="none" xmlns="http://www.w3.org/2000/svg">
<path d="M22.4767 11.8414C22.4776 11.0918 22.4138 10.3435 22.2859 9.60466H11.8394V13.8414H17.8227C17.7003 14.5181 17.4411 15.1631 17.0609 15.7377C16.6807 16.3122 16.1872 16.8043 15.6103 17.1844V19.9345H19.1812C21.272 18.0201 22.4767 15.189 22.4767 11.8414Z" fill="#123776"/>
<path d="M11.8395 22.5917C14.8288 22.5917 17.3458 21.6169 19.1813 19.9363L15.6104 17.1861C14.6165 17.8553 13.3365 18.2373 11.8395 18.2373C8.95021 18.2373 6.49783 16.303 5.62089 13.6965H1.94232V16.5307C2.8643 18.3526 4.27804 19.8842 6.02573 20.9545C7.77342 22.0248 9.78625 22.5916 11.8395 22.5917Z" fill="#34A853"/>
<path d="M5.62079 13.6962C5.15718 12.3303 5.15718 10.8512 5.62079 9.48538V6.6512H1.94222C1.16663 8.18388 0.762695 9.87544 0.762695 11.5908C0.762695 13.3061 1.16663 14.9977 1.94222 16.5303L5.62079 13.6962Z" fill="#FBBC04"/>
<path d="M11.8395 4.94456C13.4192 4.91893 14.9457 5.51167 16.0889 6.59465L19.2505 3.4549C17.2457 1.58492 14.5898 0.558269 11.8395 0.590169C9.78625 0.590262 7.77342 1.15709 6.02573 2.22736C4.27804 3.29764 2.8643 4.82924 1.94232 6.65118L5.62089 9.48535C6.49783 6.87883 8.95021 4.94456 11.8395 4.94456Z" fill="#EA4335"/>
</svg>
