<svg width="19" height="19" viewBox="0 0 19 19" fill="none" xmlns="http://www.w3.org/2000/svg">
<path fill-rule="evenodd" clip-rule="evenodd" d="M14.0003 14.1135H12.1168V11.2463C12.1168 10.5627 12.1043 9.68337 11.1378 9.68337C10.1577 9.68337 10.0083 10.4284 10.0083 11.1977V14.1135H8.12645V8.21771H9.93213V9.02404H9.95827C10.2094 8.56036 10.8242 8.07125 11.7407 8.07125C13.648 8.07125 14.0003 9.29209 14.0003 10.8799V14.1135ZM6.00259 7.41248C5.39747 7.41248 4.90941 6.93609 4.90941 6.34971C4.90941 5.76334 5.39747 5.28694 6.00259 5.28694C6.60486 5.28694 7.09407 5.76334 7.09407 6.34971C7.09407 6.93609 6.60486 7.41248 6.00259 7.41248ZM6.94463 14.1135H5.05884V8.21771H6.94463V14.1135ZM9.45486 0.85791C4.43384 0.85791 0.363953 4.81663 0.363953 9.7005C0.363953 14.5838 4.43384 18.5431 9.45486 18.5431C14.4759 18.5431 18.5458 14.5838 18.5458 9.7005C18.5458 4.81663 14.4759 0.85791 9.45486 0.85791Z" fill="#BDC4CD"/>
</svg>
