<svg width="141" height="29" viewBox="0 0 141 29" fill="none" xmlns="http://www.w3.org/2000/svg">
<g clip-path="url(#clip0_139_38)">
<path fill-rule="evenodd" clip-rule="evenodd" d="M18.1878 8.85286C17.05 8.09258 15.7122 7.68677 14.3438 7.68677V0.767578C17.0807 0.767578 19.7562 1.57919 22.0319 3.09977C24.3077 4.62034 26.0813 6.78161 27.1288 9.31022C28.1761 11.8388 28.4502 14.6213 27.9162 17.3057C27.3823 19.9901 26.0643 22.4559 24.1289 24.3912C22.1936 26.3265 19.7279 27.6445 17.0435 28.1784C14.3591 28.7124 11.5766 28.4383 9.04801 27.391C6.51939 26.3435 4.35814 24.5699 2.83756 22.2942C1.31698 20.0184 0.505371 17.3429 0.505371 14.606H7.42456C7.42456 15.9744 7.83037 17.3122 8.59065 18.4501C9.35093 19.5879 10.4316 20.4748 11.6959 20.9985C12.9602 21.5222 14.3514 21.6592 15.6936 21.3922C17.0358 21.1252 18.2687 20.4662 19.2364 19.4986C20.204 18.5309 20.863 17.298 21.13 15.9558C21.397 14.6136 21.26 13.2224 20.7363 11.9581C20.2125 10.6938 19.3257 9.61314 18.1878 8.85286Z" fill="#806491"/>
<path fill-rule="evenodd" clip-rule="evenodd" d="M7.42456 0.767582C7.42456 1.67622 7.24559 2.57597 6.89787 3.41544C6.55015 4.25492 6.04049 5.01768 5.39798 5.66019C4.75547 6.3027 3.99271 6.81236 3.15323 7.16008C2.31375 7.5078 1.41401 7.68677 0.505371 7.68677L0.505371 14.606C2.32265 14.606 4.12214 14.248 5.8011 13.5526C7.48005 12.8571 9.0056 11.8378 10.2906 10.5528C11.5756 9.26781 12.5949 7.74226 13.2904 6.0633C13.9858 4.38435 14.3438 2.58486 14.3438 0.767578L7.42456 0.767582Z" fill="#806491"/>
<path d="M87.4237 10.7676H84.0665V21.4316H87.4237V10.7676Z" fill="#806491"/>
<path d="M84.4399 8.77056C84.7907 9.12164 85.2293 9.29718 85.7559 9.29718C86.2824 9.29718 86.7142 9.12164 87.0505 8.77056C87.3874 8.40488 87.5556 7.96599 87.5556 7.45401C87.5556 6.9274 87.3874 6.48853 87.0505 6.13747C86.7142 5.78637 86.2824 5.61084 85.7559 5.61084C85.2293 5.61084 84.7907 5.78637 84.4399 6.13747C84.1029 6.48853 83.9348 6.9274 83.9348 7.45401C83.9348 7.96599 84.1029 8.40488 84.4399 8.77056Z" fill="#806491"/>
<path d="M35.9014 21.4314V5.93994H39.3464V18.4034H46.2144V21.4314H35.9014Z" fill="#806491"/>
<path fill-rule="evenodd" clip-rule="evenodd" d="M52.4183 21.6727C51.3212 21.6727 50.3265 21.4314 49.4341 20.9486C48.5564 20.4513 47.8616 19.7784 47.3496 18.9299C46.8376 18.0814 46.5816 17.1306 46.5816 16.0774C46.5816 15.0241 46.8376 14.0806 47.3496 13.2468C47.8616 12.4129 48.5564 11.7547 49.4341 11.272C50.3118 10.7746 51.3066 10.5259 52.4183 10.5259C53.5301 10.5259 54.5248 10.7673 55.4025 11.25C56.2802 11.7327 56.9751 12.3984 57.487 13.2468C57.999 14.0806 58.255 15.0241 58.255 16.0774C58.255 17.1306 57.999 18.0814 57.487 18.9299C56.9751 19.7784 56.2802 20.4513 55.4025 20.9486C54.5248 21.4314 53.5301 21.6727 52.4183 21.6727ZM52.4183 18.6227C52.901 18.6227 53.3253 18.5203 53.691 18.3155C54.0567 18.0961 54.3346 17.7962 54.5248 17.4159C54.7296 17.0209 54.832 16.5747 54.832 16.0774C54.832 15.58 54.7296 15.1485 54.5248 14.7828C54.32 14.4024 54.0347 14.1099 53.669 13.9051C53.3179 13.6856 52.901 13.5759 52.4183 13.5759C51.9502 13.5759 51.5333 13.6856 51.1676 13.9051C50.8019 14.1099 50.5166 14.4024 50.3118 14.7828C50.107 15.1631 50.0047 15.6019 50.0047 16.0993C50.0047 16.582 50.107 17.0209 50.3118 17.4159C50.5166 17.7962 50.8019 18.0961 51.1676 18.3155C51.5333 18.5203 51.9502 18.6227 52.4183 18.6227Z" fill="#806491"/>
<path fill-rule="evenodd" clip-rule="evenodd" d="M60.9139 25.6005C61.8062 26.01 62.8375 26.2148 64.0078 26.2148C65.1488 26.2148 66.1655 25.9881 67.0578 25.5346C67.9501 25.0811 68.6522 24.4522 69.1642 23.6476C69.6762 22.843 69.9326 21.8922 69.9326 20.795V10.7673H66.6408V11.4838C66.396 11.2778 66.118 11.1048 65.8071 10.9648C65.2365 10.6869 64.5855 10.5479 63.8542 10.5479C62.8741 10.5479 62.0036 10.7819 61.243 11.25C60.4823 11.7035 59.8826 12.3325 59.4437 13.1371C59.0048 13.927 58.7855 14.8193 58.7855 15.8141C58.7855 16.7942 59.0048 17.6865 59.4437 18.4911C59.8826 19.2956 60.4823 19.932 61.243 20.4001C62.0036 20.8682 62.8741 21.1022 63.8542 21.1022C64.5709 21.1022 65.2219 20.9633 65.8071 20.6854C66.0905 20.5507 66.3465 20.3921 66.575 20.2093V20.8828C66.575 21.6289 66.3337 22.2067 65.8509 22.6163C65.3828 23.0259 64.7319 23.2307 63.8981 23.2307C63.2252 23.2307 62.6473 23.1137 62.1646 22.8796C61.6965 22.6456 61.2722 22.3018 60.8919 21.8483L58.8293 23.9109C59.3413 24.6423 60.0362 25.2055 60.9139 25.6005ZM65.6973 17.8109C65.3608 18.0157 64.9586 18.1181 64.4905 18.1181C64.0224 18.1181 63.6128 18.0157 63.2617 17.8109C62.9252 17.6061 62.6619 17.3281 62.4718 16.977C62.2816 16.6113 62.1865 16.2237 62.1865 15.8141C62.1865 15.3752 62.2816 14.9803 62.4718 14.6292C62.6619 14.2781 62.9325 14.0002 63.2836 13.7954C63.6347 13.5906 64.037 13.4882 64.4905 13.4882C64.9586 13.4882 65.3608 13.5906 65.6973 13.7954C66.0484 14.0002 66.3117 14.2781 66.4873 14.6292C66.6774 14.9803 66.7725 15.3752 66.7725 15.8141C66.7725 16.2529 66.6774 16.6479 66.4873 16.999C66.3117 17.3354 66.0484 17.6061 65.6973 17.8109Z" fill="#806491"/>
<path fill-rule="evenodd" clip-rule="evenodd" d="M76.9974 21.6727C75.9001 21.6727 74.9051 21.4314 74.0132 20.9486C73.1351 20.4513 72.4405 19.7784 71.9284 18.9299C71.4164 18.0814 71.1604 17.1306 71.1604 16.0774C71.1604 15.0241 71.4164 14.0806 71.9284 13.2468C72.4405 12.4129 73.1351 11.7547 74.0132 11.272C74.8905 10.7746 75.8855 10.5259 76.9974 10.5259C78.1087 10.5259 79.1036 10.7673 79.981 11.25C80.859 11.7327 81.5537 12.3984 82.0657 13.2468C82.5778 14.0806 82.8338 15.0241 82.8338 16.0774C82.8338 17.1306 82.5778 18.0814 82.0657 18.9299C81.5537 19.7784 80.859 20.4513 79.981 20.9486C79.1036 21.4314 78.1087 21.6727 76.9974 21.6727ZM76.9974 18.6227C77.4797 18.6227 77.9038 18.5203 78.2699 18.3155C78.6352 18.0961 78.9134 17.7962 79.1036 17.4159C79.3084 17.0209 79.4108 16.5747 79.4108 16.0774C79.4108 15.58 79.3084 15.1485 79.1036 14.7828C78.8988 14.4024 78.6138 14.1099 78.2477 13.9051C77.8969 13.6856 77.4797 13.5759 76.9974 13.5759C76.529 13.5759 76.1118 13.6856 75.7464 13.9051C75.3804 14.1099 75.0953 14.4024 74.8905 14.7828C74.6857 15.1631 74.5833 15.6019 74.5833 16.0993C74.5833 16.582 74.6857 17.0209 74.8905 17.4159C75.0953 17.7962 75.3804 18.0961 75.7464 18.3155C76.1118 18.5203 76.529 18.6227 76.9974 18.6227Z" fill="#806491"/>
<path fill-rule="evenodd" clip-rule="evenodd" d="M95.4928 21.6508C94.7767 21.6508 94.118 21.5119 93.5181 21.2339C93.2025 21.0876 92.9175 20.913 92.6628 20.71V25.9296H89.3492V10.7673H92.7064V11.5033C92.95 11.3041 93.2205 11.1319 93.5181 10.9867C94.118 10.6941 94.7767 10.5479 95.4928 10.5479C96.5023 10.5479 97.3949 10.7893 98.1698 11.272C98.96 11.7547 99.5744 12.413 100.013 13.2468C100.467 14.0807 100.693 15.0315 100.693 16.0993C100.693 17.1672 100.467 18.1181 100.013 18.9519C99.5744 19.7857 98.96 20.444 98.1698 20.9267C97.3949 21.4095 96.5023 21.6508 95.4928 21.6508ZM94.8791 18.6228C95.3613 18.6228 95.7786 18.513 96.1294 18.2936C96.4954 18.0742 96.7805 17.7743 96.9853 17.394C97.1901 17.0136 97.2925 16.5821 97.2925 16.0993C97.2925 15.602 97.1901 15.1632 96.9853 14.7828C96.7805 14.4025 96.4954 14.1099 96.1294 13.9051C95.7786 13.6856 95.3689 13.576 94.9005 13.576C94.4328 13.576 94.0155 13.6856 93.6502 13.9051C93.2987 14.1099 93.0213 14.4025 92.8165 14.7828C92.6116 15.1632 92.5092 15.602 92.5092 16.0993C92.5092 16.5821 92.604 17.0136 92.7943 17.394C92.9991 17.7743 93.2842 18.0742 93.6502 18.2936C94.0155 18.513 94.4252 18.6228 94.8791 18.6228Z" fill="#806491"/>
<path d="M103.979 21.4537C104.594 21.6146 105.215 21.695 105.844 21.695C107.175 21.695 108.228 21.3879 109.004 20.7734C109.793 20.1591 110.188 19.3326 110.188 18.2939C110.188 17.6211 110.065 17.0798 109.815 16.6702C109.567 16.246 109.245 15.9095 108.85 15.6608C108.455 15.4122 108.038 15.2146 107.599 15.0684C107.161 14.9221 106.743 14.7977 106.349 14.6953C105.954 14.5929 105.632 14.4759 105.383 14.3443C105.135 14.2126 105.01 14.037 105.01 13.8176C105.01 13.6128 105.106 13.4592 105.295 13.3568C105.485 13.2398 105.77 13.1814 106.151 13.1814C106.546 13.1814 106.948 13.2618 107.358 13.4227C107.782 13.5836 108.162 13.8616 108.499 14.2565L110.408 12.3256C109.925 11.7112 109.297 11.2503 108.521 10.9432C107.76 10.6214 106.927 10.4604 106.02 10.4604C105.157 10.4604 104.403 10.6067 103.76 10.8993C103.116 11.1919 102.618 11.5942 102.267 12.1061C101.916 12.6035 101.741 13.196 101.741 13.8835C101.741 14.5271 101.865 15.0611 102.114 15.4853C102.362 15.8949 102.685 16.2167 103.079 16.4507C103.474 16.6848 103.891 16.8677 104.33 16.9993C104.769 17.131 105.186 17.2553 105.581 17.3724C105.975 17.4748 106.298 17.5991 106.546 17.7454C106.81 17.8771 106.941 18.0745 106.941 18.3378C106.941 18.5426 106.831 18.7035 106.612 18.8206C106.407 18.9376 106.107 18.9961 105.712 18.9961C105.142 18.9961 104.615 18.8937 104.133 18.6889C103.65 18.4695 103.233 18.1696 102.882 17.7893L100.973 19.7202C101.339 20.1151 101.777 20.4663 102.289 20.7734C102.816 21.066 103.379 21.2927 103.979 21.4537Z" fill="#806491"/>
<path d="M116.31 21.673C115.331 21.673 114.46 21.4755 113.7 21.0806C112.953 20.6709 112.369 20.1151 111.944 19.4129C111.52 18.6961 111.308 17.877 111.308 16.9553V10.7676H114.665V16.9115C114.665 17.2772 114.723 17.5917 114.841 17.855C114.972 18.1183 115.163 18.3231 115.411 18.4694C115.66 18.6157 115.96 18.6888 116.31 18.6888C116.808 18.6888 117.203 18.5352 117.496 18.228C117.788 17.9062 117.934 17.4674 117.934 16.9115V10.7676H121.292V16.9334C121.292 17.8696 121.08 18.6961 120.655 19.4129C120.231 20.1151 119.646 20.6709 118.9 21.0806C118.154 21.4755 117.291 21.673 116.31 21.673Z" fill="#806491"/>
<path d="M126.318 10.7673H122.961V21.4314H126.318V15.1997C126.318 14.834 126.391 14.5268 126.537 14.2781C126.698 14.0295 126.911 13.8392 127.174 13.7076C127.437 13.5613 127.737 13.4882 128.073 13.4882C128.556 13.4882 128.958 13.6418 129.28 13.949C129.617 14.2415 129.785 14.6585 129.785 15.1997V21.4314H133.142V15.1997C133.142 14.834 133.216 14.5268 133.362 14.2781C133.523 14.0295 133.735 13.8392 133.998 13.7076C134.261 13.5613 134.561 13.4882 134.898 13.4882C135.381 13.4882 135.783 13.6418 136.104 13.949C136.441 14.2415 136.609 14.6585 136.609 15.1997V21.4314H139.967V14.8267C139.967 13.9344 139.776 13.1737 139.396 12.5447C139.03 11.901 138.525 11.411 137.882 11.0745C137.253 10.7234 136.528 10.5479 135.709 10.5479C134.875 10.5479 134.122 10.7307 133.449 11.0965C133.012 11.3294 132.63 11.6302 132.303 11.9985C131.998 11.6132 131.627 11.2979 131.189 11.0525C130.604 10.7161 129.939 10.5479 129.193 10.5479C128.403 10.5479 127.693 10.7161 127.064 11.0525C126.79 11.1925 126.542 11.3602 126.318 11.5555V10.7673Z" fill="#806491"/>
</g>
<defs>
<clipPath id="clip0_139_38">
<rect width="139.768" height="27.6768" fill="white" transform="translate(0.505371 0.767578)"/>
</clipPath>
</defs>
</svg>
